<svg width="16" height="16" viewBox="0 0 16 16" fill="none" xmlns="http://www.w3.org/2000/svg">
<path d="M4.645 11.708L7.583 8.77099L10.521 11.708L11.291 10.938L8.354 7.99999L11.291 5.06199L10.521 4.29199L7.583 7.22899L4.645 4.29199L3.875 5.06199L6.812 7.99999L3.875 10.938L4.645 11.708ZM7.583 15.583C6.54167 15.583 5.559 15.3853 4.635 14.99C3.71167 14.594 2.906 14.0523 2.218 13.365C1.53067 12.677 0.989 11.8713 0.593 10.948C0.197667 10.024 0 9.04133 0 7.99999C0 6.94466 0.197667 5.95866 0.593 5.04199C0.989 4.12533 1.53067 3.32299 2.218 2.63499C2.906 1.94766 3.71167 1.40599 4.635 1.00999C5.559 0.614659 6.54167 0.416992 7.583 0.416992C8.63833 0.416992 9.62433 0.614659 10.541 1.00999C11.4577 1.40599 12.26 1.94766 12.948 2.63499C13.6353 3.32299 14.177 4.12533 14.573 5.04199C14.9683 5.95866 15.166 6.94466 15.166 7.99999C15.166 9.04133 14.9683 10.024 14.573 10.948C14.177 11.8713 13.6353 12.677 12.948 13.365C12.26 14.0523 11.4577 14.594 10.541 14.99C9.62433 15.3853 8.63833 15.583 7.583 15.583ZM7.583 14.5C9.38833 14.5 10.923 13.868 12.187 12.604C13.451 11.34 14.083 9.80533 14.083 7.99999C14.083 6.19466 13.451 4.65999 12.187 3.39599C10.923 2.13199 9.38833 1.49999 7.583 1.49999C5.77767 1.49999 4.243 2.13199 2.979 3.39599C1.715 4.65999 1.083 6.19466 1.083 7.99999C1.083 9.80533 1.715 11.34 2.979 12.604C4.243 13.868 5.77767 14.5 7.583 14.5Z" fill="#F14950"/>
</svg>
