<svg width="20" height="20" viewBox="0 0 20 20" fill="none" xmlns="http://www.w3.org/2000/svg">
<mask id="mask0_2121_31339" style="mask-type:alpha" maskUnits="userSpaceOnUse" x="0" y="0" width="20" height="20">
<rect width="20" height="20" fill="#D9D9D9"/>
</mask>
<g mask="url(#mask0_2121_31339)">
<path d="M6.708 13.292C6.80533 13.4027 6.90967 13.458 7.021 13.458C7.13233 13.458 7.23633 13.4027 7.333 13.292L10 10.625L12.667 13.292C12.7503 13.3893 12.858 13.438 12.99 13.438C13.122 13.438 13.2293 13.3893 13.312 13.292C13.4233 13.1947 13.4757 13.0903 13.469 12.979C13.4617 12.8677 13.4027 12.7567 13.292 12.646L10.646 10L13.312 7.333C13.4093 7.24967 13.458 7.142 13.458 7.01C13.458 6.878 13.4093 6.77067 13.312 6.688C13.2153 6.57667 13.108 6.521 12.99 6.521C12.8713 6.521 12.7637 6.57667 12.667 6.688L10 9.354L7.312 6.667C7.22933 6.56967 7.12867 6.52433 7.01 6.531C6.892 6.53833 6.79133 6.59067 6.708 6.688C6.59733 6.78467 6.542 6.88867 6.542 7C6.542 7.11133 6.59733 7.21533 6.708 7.312L9.375 10L6.688 12.688C6.59067 12.7707 6.54533 12.8713 6.552 12.99C6.55867 13.108 6.61067 13.2087 6.708 13.292ZM10 17.5C8.95867 17.5 7.97933 17.3057 7.062 16.917C6.146 16.5277 5.351 15.9963 4.677 15.323C4.00367 14.649 3.47233 13.854 3.083 12.938C2.69433 12.0207 2.5 11.0413 2.5 10C2.5 8.95867 2.69433 7.97933 3.083 7.062C3.47233 6.146 4.00367 5.351 4.677 4.677C5.351 4.00367 6.146 3.47233 7.062 3.083C7.97933 2.69433 8.95867 2.5 10 2.5C11.0413 2.5 12.0207 2.69433 12.938 3.083C13.854 3.47233 14.649 4.00367 15.323 4.677C15.9963 5.351 16.5277 6.146 16.917 7.062C17.3057 7.97933 17.5 8.95867 17.5 10C17.5 11.0413 17.3057 12.0207 16.917 12.938C16.5277 13.854 15.9963 14.649 15.323 15.323C14.649 15.9963 13.854 16.5277 12.938 16.917C12.0207 17.3057 11.0413 17.5 10 17.5ZM10 16.583C11.8193 16.583 13.3713 15.9407 14.656 14.656C15.9407 13.3713 16.583 11.8193 16.583 10C16.583 8.18067 15.9407 6.62867 14.656 5.344C13.3713 4.05933 11.8193 3.417 10 3.417C8.18067 3.417 6.62867 4.05933 5.344 5.344C4.05933 6.62867 3.417 8.18067 3.417 10C3.417 11.8193 4.05933 13.3713 5.344 14.656C6.62867 15.9407 8.18067 16.583 10 16.583Z" fill="#F4777C"/>
</g>
</svg>
