<svg width="16" height="18" viewBox="0 0 16 18" fill="none" xmlns="http://www.w3.org/2000/svg">
<path d="M5.18108 14.5946C4.67838 14.5946 4.25676 14.4243 3.91622 14.0838C3.57568 13.7432 3.40541 13.3297 3.40541 12.8432V1.77568C3.40541 1.27297 3.57568 0.851351 3.91622 0.510811C4.25676 0.17027 4.67838 0 5.18108 0H13.3054C13.7919 0 14.2096 0.174162 14.5586 0.522486C14.9069 0.871459 15.0811 1.28919 15.0811 1.77568V12.8432C15.0811 13.3297 14.9069 13.7432 14.5586 14.0838C14.2096 14.4243 13.7919 14.5946 13.3054 14.5946H5.18108ZM5.18108 13.1351H13.3054C13.4027 13.1351 13.4799 13.1066 13.537 13.0495C13.5934 12.9931 13.6216 12.9243 13.6216 12.8432V1.77568C13.6216 1.67838 13.5934 1.60119 13.537 1.54411C13.4799 1.48768 13.4027 1.45946 13.3054 1.45946H5.18108C5.08378 1.45946 5.00692 1.48768 4.95049 1.54411C4.89341 1.60119 4.86486 1.67838 4.86486 1.77568V12.8432C4.86486 12.9243 4.89341 12.9931 4.95049 13.0495C5.00692 13.1066 5.08378 13.1351 5.18108 13.1351ZM1.75135 18C1.26486 18 0.851351 17.8297 0.510811 17.4892C0.17027 17.1486 0 16.7351 0 16.2486V4.62162C0 4.42703 0.0687569 4.25676 0.20627 4.11081C0.344433 3.96487 0.518919 3.89189 0.72973 3.89189C0.924324 3.89189 1.09459 3.96487 1.24054 4.11081C1.38649 4.25676 1.45946 4.42703 1.45946 4.62162V16.2486C1.45946 16.3297 1.48768 16.3985 1.54411 16.4549C1.60119 16.512 1.67027 16.5405 1.75135 16.5405H10.4595C10.6541 16.5405 10.8243 16.6135 10.9703 16.7595C11.1162 16.9054 11.1892 17.0757 11.1892 17.2703C11.1892 17.4811 11.1162 17.6552 10.9703 17.7928C10.8243 17.9309 10.6541 18 10.4595 18H1.75135Z" fill="#00AAB5"/>
</svg>
