<svg width="20" height="21" viewBox="0 0 20 21" fill="none" xmlns="http://www.w3.org/2000/svg">
<mask id="mask0_1993_29934" style="mask-type:alpha" maskUnits="userSpaceOnUse" x="0" y="0" width="20" height="21">
<rect y="0.5" width="20" height="20" fill="#D9D9D9"/>
</mask>
<g mask="url(#mask0_1993_29934)">
<path d="M7.95833 15.1458C7.84722 15.1458 7.74306 15.1283 7.64583 15.0933C7.54861 15.0588 7.45833 14.9999 7.375 14.9166L3.79167 11.3333C3.63889 11.1805 3.56583 10.9824 3.5725 10.7391C3.57972 10.4963 3.65972 10.2985 3.8125 10.1458C3.96528 9.99297 4.15972 9.91659 4.39583 9.91659C4.63194 9.91659 4.82639 9.99297 4.97917 10.1458L7.95833 13.1249L15.0208 6.06242C15.1736 5.90964 15.3717 5.83325 15.615 5.83325C15.8578 5.83325 16.0556 5.90964 16.2083 6.06242C16.3611 6.2152 16.4375 6.41297 16.4375 6.65575C16.4375 6.89909 16.3611 7.09714 16.2083 7.24992L8.54167 14.9166C8.45833 14.9999 8.36806 15.0588 8.27083 15.0933C8.17361 15.1283 8.06944 15.1458 7.95833 15.1458Z" fill="#00AAB5"/>
</g>
</svg>
