<svg width="16" height="12" viewBox="0 0 16 12" fill="none" xmlns="http://www.w3.org/2000/svg">
<path d="M5.2635 11.5875C5.13017 11.5875 5.00517 11.5665 4.8885 11.5245C4.77183 11.4831 4.6635 11.4125 4.5635 11.3125L0.263502 7.01248C0.0801684 6.82914 -0.00749826 6.59148 0.000501742 6.29948C0.00916841 6.00814 0.105168 5.77081 0.288501 5.58748C0.471835 5.40414 0.705168 5.31248 0.988502 5.31248C1.27183 5.31248 1.50517 5.40414 1.6885 5.58748L5.2635 9.16248L13.7385 0.687476C13.9218 0.504142 14.1595 0.412476 14.4515 0.412476C14.7428 0.412476 14.9802 0.504142 15.1635 0.687476C15.3468 0.870809 15.4385 1.10814 15.4385 1.39948C15.4385 1.69148 15.3468 1.92914 15.1635 2.11248L5.9635 11.3125C5.8635 11.4125 5.75517 11.4831 5.6385 11.5245C5.52183 11.5665 5.39683 11.5875 5.2635 11.5875Z" fill="white"/>
</svg>
