<svg width="20" height="21" viewBox="0 0 20 21" fill="none" xmlns="http://www.w3.org/2000/svg">
<mask id="mask0_1986_29389" style="mask-type:alpha" maskUnits="userSpaceOnUse" x="0" y="0" width="20" height="21">
<rect y="0.5" width="20" height="20" fill="#D9D9D9"/>
</mask>
<g mask="url(#mask0_1986_29389)">
<path d="M9.99998 14.4583C10.1805 14.4583 10.33 14.3994 10.4483 14.2816C10.5661 14.1633 10.625 14.0138 10.625 13.8333V10.2708C10.625 10.1041 10.5661 9.96159 10.4483 9.84325C10.33 9.72547 10.1805 9.66658 9.99998 9.66658C9.81942 9.66658 9.67026 9.72547 9.55248 9.84325C9.43415 9.96159 9.37498 10.111 9.37498 10.2916V13.8541C9.37498 14.0208 9.43415 14.1633 9.55248 14.2816C9.67026 14.3994 9.81942 14.4583 9.99998 14.4583ZM9.99998 8.24992C10.1944 8.24992 10.3541 8.18381 10.4791 8.05159C10.6041 7.91992 10.6666 7.75686 10.6666 7.56242C10.6666 7.38186 10.6041 7.22547 10.4791 7.09325C10.3541 6.96159 10.1944 6.89575 9.99998 6.89575C9.80553 6.89575 9.64581 6.96159 9.52081 7.09325C9.39581 7.22547 9.33331 7.38186 9.33331 7.56242C9.33331 7.75686 9.39581 7.91992 9.52081 8.05159C9.64581 8.18381 9.80553 8.24992 9.99998 8.24992ZM9.99998 18.4166C8.90276 18.4166 7.87165 18.2083 6.90665 17.7916C5.94109 17.3749 5.10415 16.8124 4.39581 16.1041C3.68748 15.3958 3.12498 14.5588 2.70831 13.5933C2.29165 12.6283 2.08331 11.5971 2.08331 10.4999C2.08331 9.4027 2.29165 8.37131 2.70831 7.40575C3.12498 6.44075 3.68748 5.60409 4.39581 4.89575C5.10415 4.18742 5.94109 3.62492 6.90665 3.20825C7.87165 2.79159 8.90276 2.58325 9.99998 2.58325C11.0972 2.58325 12.1286 2.79159 13.0941 3.20825C14.0591 3.62492 14.8958 4.18742 15.6041 4.89575C16.3125 5.60409 16.875 6.44075 17.2916 7.40575C17.7083 8.37131 17.9166 9.4027 17.9166 10.4999C17.9166 11.5971 17.7083 12.6283 17.2916 13.5933C16.875 14.5588 16.3125 15.3958 15.6041 16.1041C14.8958 16.8124 14.0591 17.3749 13.0941 17.7916C12.1286 18.2083 11.0972 18.4166 9.99998 18.4166ZM9.99998 17.1666C11.8472 17.1666 13.4203 16.5174 14.7191 15.2191C16.0175 13.9202 16.6666 12.3471 16.6666 10.4999C16.6666 8.6527 16.0175 7.07964 14.7191 5.78075C13.4203 4.48242 11.8472 3.83325 9.99998 3.83325C8.15276 3.83325 6.57998 4.48242 5.28165 5.78075C3.98276 7.07964 3.33331 8.6527 3.33331 10.4999C3.33331 12.3471 3.98276 13.9202 5.28165 15.2191C6.57998 16.5174 8.15276 17.1666 9.99998 17.1666Z" fill="#6685A7"/>
</g>
</svg>
