<svg width="20" height="20" viewBox="0 0 20 20" fill="none" xmlns="http://www.w3.org/2000/svg">
<mask id="mask0_2358_33440" style="mask-type:alpha" maskUnits="userSpaceOnUse" x="0" y="0" width="20" height="20">
<rect width="20" height="20" fill="#D9D9D9"/>
</mask>
<g mask="url(#mask0_2358_33440)">
<path d="M8.33301 8.60421L9.99967 7.77087L11.6663 8.60421V4.16671H8.33301V8.60421ZM5.83301 13.75V12.9167H9.99967V13.75H5.83301ZM4.68717 16.6667C4.29829 16.6667 3.97551 16.5384 3.71884 16.2817C3.46162 16.0245 3.33301 15.7014 3.33301 15.3125V4.68754C3.33301 4.29865 3.46162 3.97587 3.71884 3.71921C3.97551 3.46198 4.29829 3.33337 4.68717 3.33337H15.3122C15.7011 3.33337 16.0241 3.46198 16.2813 3.71921C16.538 3.97587 16.6663 4.29865 16.6663 4.68754V15.3125C16.6663 15.7014 16.538 16.0245 16.2813 16.2817C16.0241 16.5384 15.7011 16.6667 15.3122 16.6667H4.68717ZM4.68717 15.8334H15.3122C15.4511 15.8334 15.5725 15.7812 15.6763 15.6767C15.7808 15.5728 15.833 15.4514 15.833 15.3125V4.68754C15.833 4.54865 15.7808 4.42726 15.6763 4.32337C15.5725 4.21893 15.4511 4.16671 15.3122 4.16671H12.4997V9.95837L9.99967 8.70837L7.49967 9.95837V4.16671H4.68717C4.54829 4.16671 4.4269 4.21893 4.32301 4.32337C4.21856 4.42726 4.16634 4.54865 4.16634 4.68754V15.3125C4.16634 15.4514 4.21856 15.5728 4.32301 15.6767C4.4269 15.7812 4.54829 15.8334 4.68717 15.8334Z" fill="#00AAB5"/>
</g>
</svg>
