<svg width="17" height="20" viewBox="0 0 17 20" fill="none" xmlns="http://www.w3.org/2000/svg">
<path d="M15.2 19.75H1.8C1.3 19.75 0.875 19.575 0.525 19.225C0.175 18.875 0 18.45 0 17.95V6.55C0 6.05 0.175 5.625 0.525 5.275C0.875 4.925 1.3 4.75 1.8 4.75H4C4 3.5 4.43733 2.43733 5.312 1.562C6.18733 0.687333 7.25 0.25 8.5 0.25C9.75 0.25 10.8127 0.687333 11.688 1.562C12.5627 2.43733 13 3.5 13 4.75H15.2C15.7 4.75 16.125 4.925 16.475 5.275C16.825 5.625 17 6.05 17 6.55V17.95C17 18.45 16.825 18.875 16.475 19.225C16.125 19.575 15.7 19.75 15.2 19.75ZM5.5 4.75H11.5C11.5 3.91667 11.2083 3.20833 10.625 2.625C10.0417 2.04167 9.33333 1.75 8.5 1.75C7.66667 1.75 6.95833 2.04167 6.375 2.625C5.79167 3.20833 5.5 3.91667 5.5 4.75ZM15.2 18.25C15.2833 18.25 15.3543 18.221 15.413 18.163C15.471 18.1043 15.5 18.0333 15.5 17.95V6.55C15.5 6.46667 15.471 6.39567 15.413 6.337C15.3543 6.279 15.2833 6.25 15.2 6.25H1.8C1.71667 6.25 1.646 6.279 1.588 6.337C1.52933 6.39567 1.5 6.46667 1.5 6.55V17.95C1.5 18.0333 1.52933 18.1043 1.588 18.163C1.646 18.221 1.71667 18.25 1.8 18.25H15.2ZM8.5 11.75C9.63333 11.75 10.65 11.3667 11.55 10.6C12.45 9.83333 12.8917 8.96667 12.875 8C12.875 7.78333 12.8083 7.604 12.675 7.462C12.5417 7.32067 12.3667 7.25 12.15 7.25C11.9667 7.25 11.8083 7.31267 11.675 7.438C11.5417 7.56267 11.4417 7.73333 11.375 7.95C11.2417 8.61667 10.9 9.16667 10.35 9.6C9.8 10.0333 9.18333 10.25 8.5 10.25C7.81667 10.25 7.2 10.0333 6.65 9.6C6.1 9.16667 5.75833 8.61667 5.625 7.95C5.55833 7.71667 5.46267 7.54167 5.338 7.425C5.21267 7.30833 5.05833 7.25 4.875 7.25C4.675 7.25 4.5 7.32067 4.35 7.462C4.2 7.604 4.125 7.78333 4.125 8C4.125 8.96667 4.571 9.83333 5.463 10.6C6.35433 11.3667 7.36667 11.75 8.5 11.75Z" fill="#00AAB5"/>
</svg>
