<svg width="39" height="38" viewBox="0 0 39 38" fill="none" xmlns="http://www.w3.org/2000/svg">
<rect x="8.02002" y="11" width="23" height="23" fill="white"/>
<mask id="mask0_2012_31945" style="mask-type:alpha" maskUnits="userSpaceOnUse" x="0" y="0" width="39" height="38">
<rect x="0.0100098" width="38" height="38" fill="#D9D9D9"/>
</mask>
<g mask="url(#mask0_2012_31945)">
<path d="M7.92668 34.8333C7.05584 34.8333 6.31009 34.5235 5.68943 33.9039C5.06982 33.2832 4.76001 32.5375 4.76001 31.6667V12.6667C4.76001 11.7958 5.06982 11.0506 5.68943 10.431C6.31009 9.81033 7.05584 9.5 7.92668 9.5H11.0933C11.0933 7.30972 11.8655 5.44244 13.4098 3.89816C14.953 2.35494 16.8197 1.58333 19.01 1.58333C21.2003 1.58333 23.0676 2.35494 24.6118 3.89816C26.1551 5.44244 26.9267 7.30972 26.9267 9.5H30.0933C30.9642 9.5 31.7099 9.81033 32.3306 10.431C32.9502 11.0506 33.26 11.7958 33.26 12.6667V31.6667C33.26 32.5375 32.9502 33.2832 32.3306 33.9039C31.7099 34.5235 30.9642 34.8333 30.0933 34.8333H7.92668ZM7.92668 31.6667H30.0933V12.6667H7.92668V31.6667ZM14.26 9.5H23.76C23.76 8.18055 23.2982 7.05902 22.3746 6.13541C21.451 5.2118 20.3295 4.74999 19.01 4.74999C17.6906 4.74999 16.569 5.2118 15.6454 6.13541C14.7218 7.05902 14.26 8.18055 14.26 9.5Z" fill="#335D8A"/>
<path d="M24.6118 19.8502C23.0675 21.3945 21.2003 22.1667 19.01 22.1667C16.8197 22.1667 14.953 21.3945 13.4097 19.8502C11.8655 18.307 11.0933 16.4403 11.0933 14.25H14.26C14.26 15.5694 14.7218 16.691 15.6454 17.6146C16.569 18.5382 17.6905 19 19.01 19C20.3294 19 21.451 18.5382 22.3746 17.6146C23.2982 16.691 23.76 15.5694 23.76 14.25H26.9267C26.9267 16.4403 26.155 18.307 24.6118 19.8502Z" fill="#335D8A"/>
</g>
</svg>
