<svg width="120" height="120" viewBox="0 0 120 120" fill="none" xmlns="http://www.w3.org/2000/svg">
<rect width="120" height="120" rx="60" fill="#D6F1E4"/>
<path d="M50.2489 80C49.8509 80 49.4688 79.9337 49.1026 79.801C48.7391 79.6683 48.3583 79.4361 47.9603 79.1045L31.8409 62.9851C31.4429 62.5207 31.2439 62.0391 31.2439 61.5403C31.2439 61.0441 31.4761 60.5638 31.9404 60.0995C32.3384 59.7015 32.8028 59.5025 33.3334 59.5025C33.8641 59.5025 34.3285 59.7015 34.7265 60.0995L50.2489 75.6219L85.2738 40.597C85.6718 40.199 86.1361 40 86.6668 40C87.1975 40 87.695 40.199 88.1593 40.597C88.5573 41.0614 88.7563 41.543 88.7563 42.0418C88.7563 42.538 88.5573 43.0182 88.1593 43.4826L52.5374 79.1045C52.1394 79.4361 51.7587 79.6683 51.3951 79.801C51.029 79.9337 50.6469 80 50.2489 80Z" fill="#09BD7C"/>
</svg>
