<svg width="16" height="16" viewBox="0 0 16 16" fill="none" xmlns="http://www.w3.org/2000/svg">
<path d="M7.41053 13.7263H8.54737V12.7158C9.20702 12.6316 9.80014 12.386 10.3267 11.9789C10.8528 11.5719 11.1158 10.9614 11.1158 10.1474C11.1158 9.55789 10.944 9.03523 10.6004 8.57937C10.2563 8.12295 9.57895 7.71228 8.56842 7.34737C7.68421 7.05263 7.09474 6.79298 6.8 6.56842C6.50526 6.34386 6.35789 6.03509 6.35789 5.64211C6.35789 5.24912 6.50891 4.92632 6.81095 4.67368C7.11242 4.42105 7.52281 4.29474 8.04211 4.29474C8.47719 4.29474 8.83144 4.4 9.10484 4.61053C9.37881 4.82105 9.58597 5.0807 9.72632 5.38947L10.7579 4.96842C10.5895 4.5193 10.3054 4.1367 9.90568 3.82063C9.5054 3.50512 9.06667 3.32632 8.58947 3.28421V2.27368H7.45263V3.28421C6.73684 3.42456 6.1861 3.71565 5.80042 4.15747C5.41418 4.59986 5.22105 5.09474 5.22105 5.64211C5.22105 6.27368 5.41053 6.78232 5.78947 7.168C6.16842 7.55425 6.79298 7.90175 7.66316 8.21053C8.5614 8.54737 9.17193 8.84547 9.49474 9.10484C9.81754 9.36477 9.97895 9.71228 9.97895 10.1474C9.97895 10.6807 9.78947 11.0667 9.41053 11.3053C9.03158 11.5439 8.60351 11.6632 8.12632 11.6632C7.64912 11.6632 7.2247 11.5194 6.85305 11.232C6.48084 10.944 6.19649 10.5263 6 9.97895L4.92632 10.4211C5.15088 11.0386 5.46667 11.5332 5.87368 11.9048C6.2807 12.2771 6.79298 12.5333 7.41053 12.6737V13.7263ZM8 16C6.89123 16 5.85263 15.7895 4.88421 15.3684C3.91579 14.9474 3.07004 14.3753 2.34695 13.6522C1.62442 12.9297 1.05263 12.0842 0.631579 11.1158C0.210526 10.1474 0 9.10877 0 8C0 6.89123 0.210526 5.85263 0.631579 4.88421C1.05263 3.91579 1.62442 3.07004 2.34695 2.34695C3.07004 1.62442 3.91579 1.05263 4.88421 0.631579C5.85263 0.210526 6.89123 0 8 0C9.10877 0 10.1474 0.210526 11.1158 0.631579C12.0842 1.05263 12.9297 1.62442 13.6522 2.34695C14.3753 3.07004 14.9474 3.91579 15.3684 4.88421C15.7895 5.85263 16 6.89123 16 8C16 9.10877 15.7895 10.1474 15.3684 11.1158C14.9474 12.0842 14.3753 12.9297 13.6522 13.6522C12.9297 14.3753 12.0842 14.9474 11.1158 15.3684C10.1474 15.7895 9.10877 16 8 16ZM8 14.7368C9.8807 14.7368 11.4737 14.0842 12.7789 12.7789C14.0842 11.4737 14.7368 9.8807 14.7368 8C14.7368 6.1193 14.0842 4.52632 12.7789 3.22105C11.4737 1.91579 9.8807 1.26316 8 1.26316C6.1193 1.26316 4.52632 1.91579 3.22105 3.22105C1.91579 4.52632 1.26316 6.1193 1.26316 8C1.26316 9.8807 1.91579 11.4737 3.22105 12.7789C4.52632 14.0842 6.1193 14.7368 8 14.7368Z" fill="#00AAB5"/>
</svg>
