<svg width="32" height="32" viewBox="0 0 32 32" fill="none" xmlns="http://www.w3.org/2000/svg">
<mask id="mask0_1873_37430" style="mask-type:alpha" maskUnits="userSpaceOnUse" x="0" y="0" width="32" height="32">
<rect width="32" height="32" fill="#D9D9D9"/>
</mask>
<g mask="url(#mask0_1873_37430)">
<path d="M16 19.8667C15.8666 19.8667 15.7391 19.8445 15.6173 19.8C15.4946 19.7556 15.3666 19.6778 15.2333 19.5667L11.7666 16.0667C11.6333 15.9333 11.5613 15.7778 11.5506 15.6C11.5391 15.4222 11.6111 15.2667 11.7666 15.1333C11.9 14.9778 12.0555 14.9 12.2333 14.9C12.4111 14.9 12.5666 14.9667 12.7 15.1L15.3333 17.7333V6.86668C15.3333 6.6889 15.3942 6.53335 15.516 6.40001C15.6386 6.26668 15.8 6.20001 16 6.20001C16.2 6.20001 16.3613 6.26668 16.484 6.40001C16.6057 6.53335 16.6666 6.6889 16.6666 6.86668V17.7333L19.3 15.1C19.4111 14.9889 19.5608 14.928 19.7493 14.9173C19.9386 14.9058 20.1 14.9778 20.2333 15.1333C20.3888 15.2667 20.4666 15.4169 20.4666 15.584C20.4666 15.7502 20.3888 15.9111 20.2333 16.0667L16.7666 19.5667C16.6333 19.6778 16.5057 19.7556 16.384 19.8C16.2613 19.8445 16.1333 19.8667 16 19.8667ZM8.83329 25.3333C8.21107 25.3333 7.69463 25.128 7.28396 24.7173C6.8724 24.3058 6.66663 23.7889 6.66663 23.1667V20.6667C6.66663 20.4667 6.72796 20.3053 6.85063 20.1827C6.9724 20.0609 7.13329 20 7.33329 20C7.53329 20 7.69463 20.0609 7.81729 20.1827C7.93907 20.3053 7.99996 20.4667 7.99996 20.6667V23.1667C7.99996 23.3889 8.08352 23.5831 8.25063 23.7493C8.41685 23.9165 8.61107 24 8.83329 24H23.1666C23.3888 24 23.5831 23.9165 23.7493 23.7493C23.9164 23.5831 24 23.3889 24 23.1667V20.6667C24 20.4667 24.0613 20.3053 24.184 20.1827C24.3057 20.0609 24.4666 20 24.6666 20C24.8666 20 25.028 20.0609 25.1506 20.1827C25.2724 20.3053 25.3333 20.4667 25.3333 20.6667V23.1667C25.3333 23.7889 25.128 24.3058 24.7173 24.7173C24.3057 25.128 23.7888 25.3333 23.1666 25.3333H8.83329Z" fill="#00346D"/>
</g>
</svg>
