<svg width="18" height="19" viewBox="0 0 18 19" fill="none" xmlns="http://www.w3.org/2000/svg">
<path d="M9.00023 13.6C8.86689 13.6 8.74467 13.5778 8.63356 13.5333C8.52245 13.4889 8.41134 13.4111 8.30023 13.3L5.20023 10.2C5.11134 10.1111 5.06156 10.0053 5.05089 9.88268C5.03934 9.7609 5.08912 9.64445 5.20023 9.53334C5.31134 9.42223 5.42245 9.36667 5.53356 9.36667C5.64467 9.36667 5.75578 9.42223 5.86689 9.53334L8.53356 12.2V0.933341C8.53356 0.800008 8.578 0.688897 8.66689 0.600008C8.75578 0.511119 8.86689 0.466675 9.00023 0.466675C9.13356 0.466675 9.24467 0.511119 9.33356 0.600008C9.42245 0.688897 9.46689 0.800008 9.46689 0.933341V12.2L12.1336 9.53334C12.2224 9.44445 12.3282 9.39423 12.4509 9.38268C12.5727 9.37201 12.6891 9.42223 12.8002 9.53334C12.9113 9.64445 12.9669 9.75556 12.9669 9.86667C12.9669 9.97779 12.9113 10.0889 12.8002 10.2L9.70023 13.3C9.58912 13.4111 9.478 13.4889 9.36689 13.5333C9.25578 13.5778 9.13356 13.6 9.00023 13.6ZM2.06689 18.9333C1.48912 18.9333 1.01134 18.7445 0.633561 18.3667C0.255783 17.9889 0.0668945 17.5111 0.0668945 16.9333V14.4667C0.0668945 14.3333 0.111339 14.2222 0.200228 14.1333C0.289117 14.0445 0.400228 14 0.533561 14C0.666894 14 0.778005 14.0445 0.866894 14.1333C0.955783 14.2222 1.00023 14.3333 1.00023 14.4667V16.9333C1.00023 17.2 1.11134 17.4445 1.33356 17.6667C1.55578 17.8889 1.80023 18 2.06689 18H15.9336C16.2002 18 16.4447 17.8889 16.6669 17.6667C16.8891 17.4445 17.0002 17.2 17.0002 16.9333V14.4667C17.0002 14.3333 17.0447 14.2222 17.1336 14.1333C17.2225 14.0445 17.3336 14 17.4669 14C17.6002 14 17.7113 14.0445 17.8002 14.1333C17.8891 14.2222 17.9336 14.3333 17.9336 14.4667V16.9333C17.9336 17.5111 17.7447 17.9889 17.3669 18.3667C16.9891 18.7445 16.5113 18.9333 15.9336 18.9333H2.06689Z" fill="#6685A7"/>
</svg>
