<svg width="20" height="20" viewBox="0 0 20 20" fill="none" xmlns="http://www.w3.org/2000/svg">
<mask id="mask0_1949_32902" style="mask-type:alpha" maskUnits="userSpaceOnUse" x="0" y="0" width="20" height="20">
<rect width="20" height="20" fill="#D9D9D9"/>
</mask>
<g mask="url(#mask0_1949_32902)">
<path d="M7.33301 8.97901C7.01368 8.97901 6.78101 8.84001 6.63501 8.56201C6.48968 8.28467 6.49335 8.01401 6.64601 7.75001L9.33301 3.35401C9.48568 3.09001 9.71501 2.95801 10.021 2.95801C10.3263 2.95801 10.5553 3.09001 10.708 3.35401L13.396 7.75001C13.5487 8.01401 13.552 8.28467 13.406 8.56201C13.2607 8.84001 13.028 8.97901 12.708 8.97901H7.33301ZM14.562 18.021C13.604 18.021 12.7883 17.684 12.115 17.01C11.441 16.3367 11.104 15.5207 11.104 14.562C11.104 13.604 11.441 12.7883 12.115 12.115C12.7883 11.441 13.604 11.104 14.562 11.104C15.5207 11.104 16.3367 11.441 17.01 12.115C17.684 12.7883 18.021 13.604 18.021 14.562C18.021 15.5207 17.684 16.3367 17.01 17.01C16.3367 17.684 15.5207 18.021 14.562 18.021ZM3.60401 17.604C3.39601 17.604 3.21201 17.5243 3.05201 17.365C2.89201 17.205 2.81201 17.0207 2.81201 16.812V12.292C2.81201 12.0833 2.89201 11.8993 3.05201 11.74C3.21201 11.58 3.39601 11.5 3.60401 11.5H8.12501C8.33368 11.5 8.51768 11.58 8.67701 11.74C8.83701 11.8993 8.91701 12.0833 8.91701 12.292V16.812C8.91701 17.0207 8.83701 17.205 8.67701 17.365C8.51768 17.5243 8.33368 17.604 8.12501 17.604H3.60401ZM14.562 16.688C15.1733 16.688 15.6803 16.4863 16.083 16.083C16.4863 15.6803 16.688 15.1733 16.688 14.562C16.688 13.9513 16.4863 13.4447 16.083 13.042C15.6803 12.6393 15.1733 12.438 14.562 12.438C13.9513 12.438 13.4447 12.6393 13.042 13.042C12.6393 13.4447 12.438 13.9513 12.438 14.562C12.438 15.1733 12.6393 15.6803 13.042 16.083C13.4447 16.4863 13.9513 16.688 14.562 16.688ZM4.14601 16.271H7.58301V12.833H4.14601V16.271ZM8.29201 7.64601H11.75L10.021 4.83301L8.29201 7.64601Z" fill="#00AAB5"/>
</g>
</svg>
