<svg width="26" height="22" viewBox="0 0 26 22" fill="none" xmlns="http://www.w3.org/2000/svg">
<path d="M20.9999 21.4334L20.3665 20.8L23.2999 17.8H16.5332V16.8667H23.2999L20.3665 13.8667L20.9999 13.2334L25.0999 17.3334L20.9999 21.4334ZM2.5332 17.8C1.97765 17.8 1.50565 17.6058 1.1172 17.2174C0.72787 16.828 0.533203 16.3556 0.533203 15.8V2.8667C0.533203 2.31114 0.72787 1.8387 1.1172 1.44937C1.50565 1.06092 1.97765 0.866699 2.5332 0.866699H19.4665C20.0221 0.866699 20.4945 1.06092 20.8839 1.44937C21.2723 1.8387 21.4665 2.31114 21.4665 2.8667V10.2H20.5332V2.53337L10.8665 9.60003L1.46654 2.53337V15.8C1.46654 16.1111 1.56654 16.3667 1.76654 16.5667C1.96654 16.7667 2.22209 16.8667 2.5332 16.8667H13.8665V17.8H2.5332ZM1.99987 1.80003L10.8665 8.4667L19.9999 1.80003H1.99987Z" fill="#6685A7"/>
</svg>
