<svg width="18" height="20" viewBox="0 0 18 20" fill="none" xmlns="http://www.w3.org/2000/svg">
<path d="M15.5897 20H1.84615C1.33333 20 0.897436 19.8205 0.538462 19.4615C0.179487 19.1026 0 18.6667 0 18.1538V6.46154C0 5.94872 0.179487 5.51282 0.538462 5.15385C0.897436 4.79487 1.33333 4.61538 1.84615 4.61538H4.10256C4.10256 3.33333 4.55111 2.24342 5.44821 1.34564C6.34598 0.448547 7.4359 0 8.71795 0C10 0 11.0899 0.448547 11.9877 1.34564C12.8848 2.24342 13.3333 3.33333 13.3333 4.61538H15.5897C16.1026 4.61538 16.5385 4.79487 16.8974 5.15385C17.2564 5.51282 17.4359 5.94872 17.4359 6.46154V18.1538C17.4359 18.6667 17.2564 19.1026 16.8974 19.4615C16.5385 19.8205 16.1026 20 15.5897 20ZM5.64103 4.61538H11.7949C11.7949 3.76068 11.4957 3.03419 10.8974 2.4359C10.2991 1.83761 9.57265 1.53846 8.71795 1.53846C7.86325 1.53846 7.13675 1.83761 6.53846 2.4359C5.94017 3.03419 5.64103 3.76068 5.64103 4.61538ZM15.5897 18.4615C15.6752 18.4615 15.748 18.4318 15.8082 18.3723C15.8677 18.3121 15.8974 18.2393 15.8974 18.1538V6.46154C15.8974 6.37607 15.8677 6.30325 15.8082 6.24308C15.748 6.18359 15.6752 6.15385 15.5897 6.15385H1.84615C1.76068 6.15385 1.68821 6.18359 1.62872 6.24308C1.56855 6.30325 1.53846 6.37607 1.53846 6.46154V18.1538C1.53846 18.2393 1.56855 18.3121 1.62872 18.3723C1.68821 18.4318 1.76068 18.4615 1.84615 18.4615H15.5897ZM8.71795 11.7949C9.88034 11.7949 10.9231 11.4017 11.8462 10.6154C12.7692 9.82906 13.2222 8.94017 13.2051 7.94872C13.2051 7.7265 13.1368 7.54256 13 7.39692C12.8632 7.25197 12.6838 7.17949 12.4615 7.17949C12.2735 7.17949 12.1111 7.24376 11.9744 7.37231C11.8376 7.50017 11.735 7.67521 11.6667 7.89744C11.5299 8.5812 11.1795 9.1453 10.6154 9.58974C10.0513 10.0342 9.4188 10.2564 8.71795 10.2564C8.0171 10.2564 7.38462 10.0342 6.82051 9.58974C6.25641 9.1453 5.90598 8.5812 5.76923 7.89744C5.70086 7.65812 5.60274 7.47863 5.47487 7.35897C5.34633 7.23932 5.18804 7.17949 5 7.17949C4.79487 7.17949 4.61539 7.25197 4.46154 7.39692C4.30769 7.54256 4.23077 7.7265 4.23077 7.94872C4.23077 8.94017 4.68821 9.82906 5.60308 10.6154C6.51727 11.4017 7.55556 11.7949 8.71795 11.7949Z" fill="white"/>
</svg>
