<svg width="20" height="20" viewBox="0 0 20 20" fill="none" xmlns="http://www.w3.org/2000/svg">
<mask id="mask0_2358_33434" style="mask-type:alpha" maskUnits="userSpaceOnUse" x="0" y="0" width="20" height="20">
<rect width="20" height="20" fill="#D9D9D9"/>
</mask>
<g mask="url(#mask0_2358_33434)">
<path d="M3.33333 16.1459V7.37504C3.125 7.3056 2.93389 7.15976 2.76 6.93754C2.58667 6.71532 2.5 6.45143 2.5 6.14587V4.68754C2.5 4.29865 2.62861 3.97587 2.88583 3.71921C3.1425 3.46198 3.46528 3.33337 3.85417 3.33337H16.1458C16.5347 3.33337 16.8578 3.46198 17.115 3.71921C17.3717 3.97587 17.5 4.29865 17.5 4.68754V6.14587C17.5 6.45143 17.4133 6.71532 17.24 6.93754C17.0661 7.15976 16.875 7.3056 16.6667 7.37504V16.1459C16.6667 16.5348 16.5383 16.8578 16.2817 17.115C16.0244 17.3717 15.7014 17.5 15.3125 17.5H4.6875C4.29861 17.5 3.97583 17.3717 3.71917 17.115C3.46194 16.8578 3.33333 16.5348 3.33333 16.1459ZM4.16667 7.50004V16.1459C4.16667 16.2987 4.21528 16.4237 4.3125 16.5209C4.40972 16.6181 4.53472 16.6667 4.6875 16.6667H15.3125C15.4653 16.6667 15.5903 16.6181 15.6875 16.5209C15.7847 16.4237 15.8333 16.2987 15.8333 16.1459V7.50004H4.16667ZM16.1458 6.66671C16.2986 6.66671 16.4236 6.6181 16.5208 6.52087C16.6181 6.42365 16.6667 6.29865 16.6667 6.14587V4.68754C16.6667 4.53476 16.6181 4.40976 16.5208 4.31254C16.4236 4.21532 16.2986 4.16671 16.1458 4.16671H3.85417C3.70139 4.16671 3.57639 4.21532 3.47917 4.31254C3.38194 4.40976 3.33333 4.53476 3.33333 4.68754V6.14587C3.33333 6.29865 3.38194 6.42365 3.47917 6.52087C3.57639 6.6181 3.70139 6.66671 3.85417 6.66671H16.1458ZM7.8125 11.1459H12.1875V10.3125H7.8125V11.1459Z" fill="#00AAB5"/>
</g>
</svg>
