<svg width="48" height="48" viewBox="0 0 48 48" fill="none" xmlns="http://www.w3.org/2000/svg">
<mask id="mask0_1861_33562" style="mask-type:alpha" maskUnits="userSpaceOnUse" x="0" y="0" width="48" height="48">
<rect width="48" height="48" fill="#D9D9D9"/>
</mask>
<g mask="url(#mask0_1861_33562)">
<path d="M7 41.1499C6.36667 41.1499 5.83333 40.9249 5.4 40.4749C4.96667 40.0249 4.75 39.4999 4.75 38.8999V8.3999C4.75 7.7999 4.96667 7.2749 5.4 6.8249C5.83333 6.3749 6.36667 6.1499 7 6.1499H21.1C21.7 6.1499 22.225 6.3749 22.675 6.8249C23.125 7.2749 23.35 7.7999 23.35 8.3999V14.3499H41C41.6333 14.3499 42.1667 14.5749 42.6 15.0249C43.0333 15.4749 43.25 15.9999 43.25 16.5999V38.8999C43.25 39.4999 43.0333 40.0249 42.6 40.4749C42.1667 40.9249 41.6333 41.1499 41 41.1499H7ZM7 38.8999H12.9V32.9499H7V38.8999ZM7 30.6999H12.9V24.7999H7V30.6999ZM7 22.4999H12.9V16.5999H7V22.4999ZM7 14.3499H12.9V8.3999H7V14.3499ZM15.2 38.8999H21.1V32.9499H15.2V38.8999ZM15.2 30.6999H21.1V24.7999H15.2V30.6999ZM15.2 22.4999H21.1V16.5999H15.2V22.4999ZM15.2 14.3499H21.1V8.3999H15.2V14.3499ZM23.35 38.8999H41V16.5999H23.35V22.4999H27.75V24.7999H23.35V30.6999H27.75V32.9499H23.35V38.8999ZM33.05 24.7999V22.4999H35.35V24.7999H33.05ZM33.05 32.9499V30.6999H35.35V32.9499H33.05Z" fill="#6685A7"/>
</g>
</svg>
