<svg width="32" height="32" viewBox="0 0 32 32" fill="none" xmlns="http://www.w3.org/2000/svg">
<mask id="mask0_1873_40029" style="mask-type:alpha" maskUnits="userSpaceOnUse" x="0" y="0" width="32" height="32">
<rect width="32" height="32" fill="#D9D9D9"/>
</mask>
<g mask="url(#mask0_1873_40029)">
<path d="M13.3334 13.7666L15.2667 12.7999C15.5112 12.6888 15.7556 12.6333 16 12.6333C16.2445 12.6333 16.4889 12.6888 16.7334 12.7999L18.6667 13.7666V6.66659H13.3334V13.7666ZM10 21.9999C9.80004 21.9999 9.63915 21.939 9.51737 21.8173C9.39471 21.6946 9.33337 21.5333 9.33337 21.3333C9.33337 21.1333 9.39471 20.9719 9.51737 20.8493C9.63915 20.7275 9.80004 20.6666 10 20.6666H15.3334C15.5334 20.6666 15.6947 20.7275 15.8174 20.8493C15.9392 20.9719 16 21.1333 16 21.3333C16 21.5333 15.9392 21.6946 15.8174 21.8173C15.6947 21.939 15.5334 21.9999 15.3334 21.9999H10ZM7.50004 26.6666C6.87782 26.6666 6.36137 26.4613 5.95071 26.0506C5.53915 25.639 5.33337 25.1221 5.33337 24.4999V7.49992C5.33337 6.8777 5.53915 6.36125 5.95071 5.95059C6.36137 5.53903 6.87782 5.33325 7.50004 5.33325H24.5C25.1223 5.33325 25.6392 5.53903 26.0507 5.95059C26.4614 6.36125 26.6667 6.8777 26.6667 7.49992V24.4999C26.6667 25.1221 26.4614 25.639 26.0507 26.0506C25.6392 26.4613 25.1223 26.6666 24.5 26.6666H7.50004ZM7.50004 25.3333H24.5C24.7223 25.3333 24.9165 25.2497 25.0827 25.0826C25.2498 24.9164 25.3334 24.7221 25.3334 24.4999V7.49992C25.3334 7.2777 25.2498 7.08347 25.0827 6.91725C24.9165 6.75014 24.7223 6.66659 24.5 6.66659H20V14.8333C20 15.0777 19.8889 15.2719 19.6667 15.4159C19.4445 15.5608 19.2223 15.5666 19 15.4333L16 13.9333L13 15.4333C12.7778 15.5666 12.5556 15.5608 12.3334 15.4159C12.1112 15.2719 12 15.0777 12 14.8333V6.66659H7.50004C7.27782 6.66659 7.0836 6.75014 6.91737 6.91725C6.75026 7.08347 6.66671 7.2777 6.66671 7.49992V24.4999C6.66671 24.7221 6.75026 24.9164 6.91737 25.0826C7.0836 25.2497 7.27782 25.3333 7.50004 25.3333Z" fill="#00346D"/>
</g>
</svg>
