<svg width="77" height="68" viewBox="0 0 77 68" fill="none" xmlns="http://www.w3.org/2000/svg">
<circle cx="38.6152" cy="34" r="34" fill="white"/>
<path d="M42.5385 24.9231V21.5767C42.5385 14.1191 49.9321 8 59.0769 8C68.2217 8 75.6154 14.0235 75.6154 21.5767V24.9231" fill="#00AAB5"/>
<path d="M42.5385 24.9231H1V58H42.5385V24.9231Z" stroke="#00346D" stroke-width="1.5" stroke-miterlimit="10" stroke-linecap="round" stroke-linejoin="round"/>
<path d="M42.5385 24.9231H1V58H42.5385V24.9231Z" fill="#D2FFFF"/>
<path d="M42.5384 58L75.6154 58V24.9231L42.5384 24.9231L42.5384 58Z" fill="#D2FFFF"/>
<path d="M42.5385 24.9231H1V58H42.5385V24.9231Z" stroke="#00346D" stroke-width="1.5" stroke-miterlimit="10" stroke-linecap="round" stroke-linejoin="round"/>
<path d="M33.0279 54.1538H5.61536V28.7692H17.6573V33.7272C17.6573 35.7103 19.2237 37.1977 21.0839 37.1977C23.0419 37.1977 24.5105 35.6112 24.5105 33.7272V28.7692H37.923V54.0547" fill="#66CCD3"/>
<path d="M71.7693 33.5288V54.1538H46.3846V28.7692H71.7693" fill="#00AAB5"/>
<path d="M33.0279 54.1538H5.61536V28.7692H17.6573V33.7272C17.6573 35.7103 19.2237 37.1977 21.0839 37.1977C23.0419 37.1977 24.5105 35.6112 24.5105 33.7272V28.7692H37.923V54.0547" stroke="#00346D" stroke-width="1.5" stroke-miterlimit="10" stroke-linecap="round" stroke-linejoin="round"/>
<path d="M71.7693 33.5288V54.1538H46.3846V28.7692H71.7693" stroke="#00346D" stroke-width="1.5" stroke-miterlimit="10" stroke-linecap="round" stroke-linejoin="round"/>
<path d="M42.5384 58L75.6154 58V24.9231L42.5384 24.9231L42.5384 58Z" stroke="#00346D" stroke-width="1.5" stroke-miterlimit="10" stroke-linecap="round" stroke-linejoin="round"/>
<path d="M73.3077 14.1538C74.7846 16.3275 75.6154 18.7975 75.6154 21.4651V24.9231" stroke="#00346D" stroke-width="1.5" stroke-miterlimit="10" stroke-linecap="round" stroke-linejoin="round"/>
<path d="M58.6923 8C49.5779 8 42.2088 14.0235 42.2088 21.5767V24.9231H1V21.5767C1 14.0235 8.3691 8 17.4835 8H58.6923Z" fill="#66CCD3"/>
<path d="M24.7217 21.0769C25.1047 13.8553 32.2863 8 41 8H31.5203C24.2429 8 18.3061 13.8553 17.9231 21.0769" fill="#D2FFFF"/>
<path d="M24.5063 21.0769H75.6154V24.9231H1V21.0769H17.5812" fill="#D2FFFF"/>
<path d="M24.7217 21.0769C25.1047 13.8553 32.2863 8 41 8H31.5203C24.2429 8 18.3061 13.8553 17.9231 21.0769" stroke="#00346D" stroke-width="1.5" stroke-miterlimit="10" stroke-linecap="round" stroke-linejoin="round"/>
<path d="M58.6923 8H17.4835C8.3691 8 1 14.0235 1 21.5767V24.9231" stroke="#00346D" stroke-width="1.5" stroke-miterlimit="10" stroke-linecap="round" stroke-linejoin="round"/>
<path d="M21 29.5385V34.1538" stroke="#00346D" stroke-width="1.5" stroke-miterlimit="10" stroke-linecap="round" stroke-linejoin="round"/>
<path d="M24.5063 21.0769H75.6154V24.9231H1V21.0769H17.5812" stroke="#00346D" stroke-width="1.5" stroke-miterlimit="10" stroke-linecap="round" stroke-linejoin="round"/>
<path d="M42.5385 24.9231V21.5767C42.5385 14.1191 49.8186 8 58.8229 8C62.1756 8 65.3367 8.8605 67.9231 10.2947" stroke="#00346D" stroke-width="1.5" stroke-miterlimit="10" stroke-linecap="round" stroke-linejoin="round"/>
</svg>
