<svg width="118" height="80" viewBox="0 0 118 80" fill="none" xmlns="http://www.w3.org/2000/svg">
<path d="M65.0098 27.6983V22.419C65.0098 10.6536 76.4563 1 90.6138 1C104.771 1 116.218 10.5028 116.218 22.419V27.6983" fill="#00AAB5"/>
<path d="M65.0101 27.6982H1V78.9832H65.0101V27.6982Z" stroke="#00346D" stroke-width="1.9577" stroke-miterlimit="10" stroke-linecap="round" stroke-linejoin="round"/>
<path d="M65.0101 27.6982H1V78.9832H65.0101V27.6982Z" fill="#D2FFFF"/>
<path d="M65.0292 78.998H116.237V27.7131L65.0292 27.7131V78.998Z" fill="#D2FFFF"/>
<path d="M65.0101 27.6982H1V78.9832H65.0101V27.6982Z" stroke="#00346D" stroke-width="1.9577" stroke-miterlimit="10" stroke-linecap="round" stroke-linejoin="round"/>
<path d="M50.25 72.6482H8.07861V34.0337H26.6039V41.5756C26.6039 44.5924 29.0137 46.8549 31.8753 46.8549C34.8876 46.8549 37.1467 44.4415 37.1467 41.5756V34.0337H57.7806V72.4974" fill="#66CCD3"/>
<path d="M109.892 41.2739V72.6482H71.4863V34.0337H109.892" fill="#00AAB5"/>
<path d="M50.25 72.6482H8.07861V34.0337H26.6039V41.5756C26.6039 44.5924 29.0137 46.8549 31.8753 46.8549C34.8876 46.8549 37.1467 44.4415 37.1467 41.5756V34.0337H57.7806V72.4974" stroke="#00346D" stroke-width="1.9577" stroke-miterlimit="10" stroke-linecap="round" stroke-linejoin="round"/>
<path d="M109.892 41.2739V72.6482H71.4863V34.0337H109.892" stroke="#00346D" stroke-width="1.9577" stroke-miterlimit="10" stroke-linecap="round" stroke-linejoin="round"/>
<path d="M65.0292 78.998H116.237V27.7131L65.0292 27.7131V78.998Z" stroke="#00346D" stroke-width="1.9577" stroke-miterlimit="10" stroke-linecap="round" stroke-linejoin="round"/>
<path d="M112.453 11.1064C114.862 14.4249 116.218 18.1958 116.218 22.2685V27.5478" stroke="#00346D" stroke-width="1.9577" stroke-miterlimit="10" stroke-linecap="round" stroke-linejoin="round"/>
<path d="M90.6142 1C76.4566 1 65.0101 10.5028 65.0101 22.419V27.6983H1V22.419C1 10.5028 12.4465 1 26.604 1H90.6142Z" fill="#66CCD3"/>
<path d="M37.2975 21.2123C37.8999 10.0503 49.1958 1 62.9015 1H47.9909C36.5444 1 27.2065 10.0503 26.604 21.2123" fill="#D2FFFF"/>
<path d="M37.2975 21.2124H116.218V27.6984H1V21.2124H26.604" fill="#D2FFFF"/>
<path d="M37.2975 21.2123C37.8999 10.0503 49.1958 1 62.9015 1H47.9909C36.5444 1 27.2065 10.0503 26.604 21.2123" stroke="#00346D" stroke-width="1.9577" stroke-miterlimit="10" stroke-linecap="round" stroke-linejoin="round"/>
<path d="M90.6142 1H26.604C12.4465 1 1 10.5028 1 22.419V27.6983" stroke="#00346D" stroke-width="1.9577" stroke-miterlimit="10" stroke-linecap="round" stroke-linejoin="round"/>
<path d="M31.875 35.2402V41.5754" stroke="#00346D" stroke-width="1.9577" stroke-miterlimit="10" stroke-linecap="round" stroke-linejoin="round"/>
<path d="M37.2975 21.2124H116.218V27.6984H1V21.2124H26.604" stroke="#00346D" stroke-width="1.9487" stroke-miterlimit="10" stroke-linecap="round" stroke-linejoin="round"/>
<path d="M65.0098 27.6983V22.419C65.0098 10.6536 76.4563 1 90.6138 1C95.8852 1 100.855 2.35754 104.922 4.62011" stroke="#00346D" stroke-width="1.9577" stroke-miterlimit="10" stroke-linecap="round" stroke-linejoin="round"/>
</svg>
