<svg width="151" height="104" viewBox="0 0 151 104" fill="none" xmlns="http://www.w3.org/2000/svg">
<path d="M130.4 1.1001L135.2 2.6001C146 5.9001 151.8 19.7001 148.1 33.5001C144.4 47.3001 132.6 55.7001 121.7 52.4001L116.9 50.9001" fill="#D2FFFF"/>
<path d="M130.4 1.1001L135.2 2.6001C146 5.9001 151.8 19.7001 148.1 33.5001C144.4 47.3001 132.6 55.7001 121.7 52.4001L116.9 50.9001" stroke="#00346D" stroke-width="1.9577" stroke-miterlimit="10" stroke-linecap="round" stroke-linejoin="round"/>
<path d="M133.4 8.1001L136.3 9.0001C142.9 11.0001 145.9 21.3001 143 31.8001C140.1 42.4001 132.4 49.3001 125.8 47.2001L122.9 46.3001L133.4 8.1001Z" fill="#00AAB5"/>
<path d="M133.4 8.1001L136.3 9.0001C142.9 11.0001 145.9 21.3001 143 31.8001C140.1 42.4001 132.4 49.3001 125.8 47.2001L122.9 46.3001L133.4 8.1001Z" stroke="#00346D" stroke-width="1.9552" stroke-miterlimit="10" stroke-linecap="round" stroke-linejoin="round"/>
<path d="M65 50.8999H1V102.2H65V50.8999Z" stroke="#00346D" stroke-width="1.9577" stroke-miterlimit="10" stroke-linecap="round" stroke-linejoin="round"/>
<path d="M65 50.8999H1V102.2H65V50.8999Z" fill="#D2FFFF"/>
<path d="M129.9 1H65.8998L52.2998 50.8H116.3L129.9 1Z" fill="#00AAB5"/>
<path d="M65.7998 1.1001L70.5998 2.6001C81.3998 5.9001 87.1998 19.7001 83.4998 33.5001C81.3998 41.4001 76.5998 47.5001 70.8998 50.7001" stroke="#00346D" stroke-width="1.9577" stroke-miterlimit="10" stroke-linecap="round" stroke-linejoin="round"/>
<path d="M129.9 1H65.8998L52.2998 50.8H116.3L129.9 1Z" stroke="#00346D" stroke-width="1.93" stroke-miterlimit="10" stroke-linecap="round" stroke-linejoin="round"/>
<path d="M129.9 1H65.8998L52.2998 50.8H116.3L129.9 1Z" stroke="#00346D" stroke-width="1.93" stroke-miterlimit="10" stroke-linecap="round" stroke-linejoin="round"/>
<path d="M65 102.2H116.2V50.8999H65V102.2Z" fill="#D2FFFF"/>
<path d="M65 50.8999H1V102.2H65V50.8999Z" stroke="#00346D" stroke-width="1.9577" stroke-miterlimit="10" stroke-linecap="round" stroke-linejoin="round"/>
<path d="M50.2001 95.8998H8.1001V57.2998H26.6001V64.7998C26.6001 67.7998 29.0001 70.0998 31.9001 70.0998C34.9001 70.0998 37.2001 67.6998 37.2001 64.7998V57.2998H57.8001V95.7998" fill="#66CCD3"/>
<path d="M109.9 64.4998V95.8998H71.5V57.2998H109.9" fill="#00AAB5"/>
<path d="M50.2001 95.8998H8.1001V57.2998H26.6001V64.7998C26.6001 67.7998 29.0001 70.0998 31.9001 70.0998C34.9001 70.0998 37.2001 67.6998 37.2001 64.7998V57.2998H57.8001V95.7998" stroke="#00346D" stroke-width="1.9577" stroke-miterlimit="10" stroke-linecap="round" stroke-linejoin="round"/>
<path d="M109.9 64.4998V95.8998H71.5V57.2998H109.9" stroke="#00346D" stroke-width="1.9577" stroke-miterlimit="10" stroke-linecap="round" stroke-linejoin="round"/>
<path d="M65 102.2H116.2V50.8999H65V102.2Z" stroke="#00346D" stroke-width="1.9577" stroke-miterlimit="10" stroke-linecap="round" stroke-linejoin="round"/>
<path d="M31.8999 58.5V64.8" stroke="#00346D" stroke-width="1.9577" stroke-miterlimit="10" stroke-linecap="round" stroke-linejoin="round"/>
<path d="M19.5 38.4998L8.5 20.7998" stroke="#00346D" stroke-width="2.2215" stroke-miterlimit="10" stroke-linecap="round" stroke-linejoin="round"/>
<path d="M86.2002 38.5002L97.2002 22.2002" stroke="#00346D" stroke-width="2.2215" stroke-miterlimit="10" stroke-linecap="round" stroke-linejoin="round"/>
<path d="M68.2002 31.9001L72.9002 12.6001" stroke="#00346D" stroke-width="2.2215" stroke-miterlimit="10" stroke-linecap="round" stroke-linejoin="round"/>
<path d="M35.7001 32.1002L31.6001 11.7002" stroke="#00346D" stroke-width="2.2215" stroke-miterlimit="10" stroke-linecap="round" stroke-linejoin="round"/>
<path d="M52.2998 29.7001V8.1001" stroke="#00346D" stroke-width="2.2215" stroke-miterlimit="10" stroke-linecap="round" stroke-linejoin="round"/>
</svg>
