<svg width="33" height="23" viewBox="0 0 33 23" fill="none" xmlns="http://www.w3.org/2000/svg">
<path d="M25.651 0.5C25.651 6.59645 21.6751 11.3676 16.3738 11.3676C11.3376 11.3676 7.09662 6.59645 7.09662 0.5H22.2052" stroke="#6685A7" stroke-miterlimit="10" stroke-linecap="round" stroke-linejoin="round"/>
<path d="M6.30126 7.6567C5.77113 7.92176 5.24101 7.92176 4.71089 7.92176C2.59038 7.92176 1 6.33138 1 4.21088C1 2.09038 2.59038 0.5 4.71089 0.5H6.83139" stroke="#6685A7" stroke-miterlimit="10" stroke-linecap="round" stroke-linejoin="round"/>
<path d="M25.9152 0.5H28.0357C30.1562 0.5 31.7465 2.09038 31.7465 4.21088C31.7465 6.33138 30.1562 7.92176 28.0357 7.92176C26.4453 7.92176 25.12 6.86151 24.5898 5.5362" stroke="#6685A7" stroke-miterlimit="10" stroke-linecap="round" stroke-linejoin="round"/>
<path d="M14.253 11.8975C14.253 11.8975 14.253 14.018 14.253 14.8132C13.9879 16.9337 13.4578 20.1144 11.3373 22.5H16.1084H16.9036H21.6747C19.5542 20.1144 18.759 16.9337 18.759 14.8132V14.018" stroke="#6685A7" stroke-miterlimit="10" stroke-linecap="round" stroke-linejoin="round"/>
</svg>
