<svg width="13" height="12" viewBox="0 0 13 12" fill="none" xmlns="http://www.w3.org/2000/svg">
<path d="M8.22766 3.0962L8.46723 3.57534C8.58701 3.69512 8.82658 3.93469 9.06615 3.93469L11.342 4.41382C12.1805 4.65339 12.3003 5.2523 11.8212 5.85122L10.264 7.64796C10.1442 7.76775 10.0244 8.1271 10.0244 8.24688L10.264 10.5228C10.3838 11.3612 9.78484 11.7206 9.06615 11.3612L6.91005 10.403C6.67048 10.2832 6.43092 10.2832 6.19135 10.403L4.03525 11.3612C3.31655 11.7206 2.71764 11.2415 2.83742 10.5228L3.07699 8.24688C3.07699 8.00731 2.95721 7.76775 2.83742 7.64796L1.28024 5.85122C0.801106 5.2523 0.920892 4.65339 1.75937 4.41382L4.03525 3.93469C4.27482 3.93469 4.51439 3.69512 4.63417 3.57534L5.832 1.53902C6.19135 0.820325 6.91005 0.820325 7.38918 1.53902" stroke="#00AAB5" stroke-miterlimit="10" stroke-linecap="round"/>
</svg>
