<svg width="20" height="20" viewBox="0 0 20 20" fill="none" xmlns="http://www.w3.org/2000/svg">
<path d="M20 4.23542C19.9815 5.01575 19.7017 5.67932 19.1483 6.23185C16.6089 8.76862 14.0707 11.3067 11.5336 13.8461C10.3307 15.0505 9.12638 16.2522 7.92056 17.4512C7.79734 17.571 7.64913 17.6621 7.48655 17.7178C5.29435 18.4572 3.09993 19.1905 0.903321 19.9178C0.779508 19.9588 0.647324 20.0037 0.520427 19.9998C0.133566 19.9887 -0.0871817 19.631 0.043681 19.2353C0.506327 17.8338 0.97147 16.4331 1.43911 15.0331C1.72419 14.1779 2.00398 13.3218 2.29699 12.4692C2.34374 12.3324 2.42018 12.2077 2.52082 12.1039C6.26752 8.35018 10.0173 4.59878 13.7702 0.849737C14.8986 -0.27956 16.5875 -0.282644 17.7238 0.836959C18.2196 1.32281 18.7112 1.81263 19.1985 2.30641C19.7273 2.84 19.9793 3.49123 20 4.23542ZM13.2344 2.99597L3.69418 12.5388L7.46144 16.3065C10.6339 13.1341 13.8133 9.95417 16.9999 6.76676L13.2344 2.99597ZM17.8406 5.96616C18.0384 5.77493 18.2508 5.58635 18.4442 5.3797C19.0377 4.74566 19.0646 3.78688 18.4751 3.15063C17.952 2.58576 17.4044 2.04204 16.8417 1.51683C16.5722 1.26546 16.2235 1.11606 15.8556 1.09442C15.4877 1.07278 15.1238 1.18026 14.8268 1.3983C14.5298 1.61861 14.2778 1.89884 14.0174 2.14118L17.8406 5.96616ZM1.41179 18.5867L6.39074 16.9273L3.07599 13.6113L1.41179 18.5867Z" fill="#00AAB5"/>
</svg>
