<svg width="20" height="20" viewBox="0 0 20 20" fill="none" xmlns="http://www.w3.org/2000/svg">
<path d="M1.8 19.4C1.3 19.4 0.875 19.225 0.525 18.875C0.175 18.525 0 18.1 0 17.6V4.2C0 3.7 0.175 3.275 0.525 2.925C0.875 2.575 1.3 2.4 1.8 2.4H10.35L8.85 3.9H1.8C1.73333 3.9 1.66667 3.93333 1.6 4C1.53333 4.06667 1.5 4.13333 1.5 4.2V17.6C1.5 17.6667 1.53333 17.7333 1.6 17.8C1.66667 17.8667 1.73333 17.9 1.8 17.9H15.2C15.2667 17.9 15.3333 17.8667 15.4 17.8C15.4667 17.7333 15.5 17.6667 15.5 17.6V10.525L17 9.025V17.6C17 18.1 16.825 18.525 16.475 18.875C16.125 19.225 15.7 19.4 15.2 19.4H1.8ZM13.025 2.825L14.1 3.875L7.5 10.475V11.9H8.9L15.55 5.275L16.6 6.325L10.025 12.9C9.875 13.05 9.7 13.1707 9.5 13.262C9.3 13.354 9.08333 13.4 8.85 13.4H6.9C6.65 13.4 6.43733 13.3127 6.262 13.138C6.08733 12.9627 6 12.75 6 12.5V10.55C6 10.3167 6.04167 10.1 6.125 9.9C6.20833 9.7 6.325 9.525 6.475 9.375L13.025 2.825ZM16.6 6.325L13.025 2.825L15.325 0.525C15.675 0.175 16.1043 0 16.613 0C17.121 0 17.55 0.183333 17.9 0.55L18.875 1.525C19.2083 1.875 19.375 2.3 19.375 2.8C19.375 3.3 19.2 3.725 18.85 4.075L16.6 6.325Z" fill="#00AAB5"/>
</svg>
