<svg width="132" height="183" viewBox="0 0 132 183" fill="none" xmlns="http://www.w3.org/2000/svg">
<circle cx="66" cy="116.684" r="66" fill="#CCD6E2"/>
<path d="M68.0393 142.05C54.7937 143.11 22.2894 114.227 11.7454 97.6776C9.7586 93.0415 64.7279 48.6689 68.0393 48.0066C71.3507 47.3443 124.995 90.3926 123.009 97.6776C121.022 104.963 84.5963 140.726 68.0393 142.05Z" fill="#F1F1F1"/>
<path d="M124.299 97.0078V153.796C124.299 162.007 118.434 167.872 110.223 167.872H25.7686C17.5578 167.872 11.6929 162.007 11.6929 153.796V98.9947C11.6929 91.9568 24.2762 126.81 67.9959 142.067C82.5569 142.067 124.299 97.0078 124.299 97.0078L67.9959 142.067L124.299 97.0078Z" fill="white"/>
<path d="M124.351 115.606V153.142C124.351 161.352 118.487 167.217 110.276 167.217H25.8211C17.6103 167.217 11.7454 161.352 11.7454 153.142V99.1845C11.7454 92.1466 62.1835 48.0068 68.0484 48.0068C71.5674 48.0068 119.66 88.6277 120.833 90.9736C124.351 94.4926 123.179 99.1845 120.833 102.703C110.276 113.26 82.1242 141.412 68.0484 141.412C55.1456 141.412 31.686 120.298 18.7832 107.395" stroke="#6685A7" stroke-width="2.64912" stroke-miterlimit="10" stroke-linecap="round"/>
<path d="M119.965 70.3562L120.46 70.4309L119.965 70.3562ZM58.6078 70.3562L58.5027 70.8451L58.6078 70.3562ZM85.5722 58.1682L85.1306 57.9338L85.5722 58.1682ZM47.0711 130.139C47.6672 129.876 48.2793 129.603 48.9062 129.319L48.4941 128.408C47.8702 128.691 47.2611 128.962 46.6682 129.223L47.0711 130.139ZM52.5678 127.623C53.746 127.065 54.9625 126.478 56.211 125.862L55.7689 124.966C54.525 125.579 53.3132 126.164 52.1398 126.72L52.5678 127.623ZM59.8213 124.05C60.9948 123.45 62.1896 122.829 63.4013 122.188L62.9336 121.304C61.7261 121.943 60.5355 122.562 59.3662 123.159L59.8213 124.05ZM66.9607 120.272C68.1289 119.633 69.3081 118.977 70.4948 118.305L70.0022 117.435C68.8198 118.104 67.6447 118.758 66.4806 119.395L66.9607 120.272ZM73.9934 116.291C75.1474 115.615 76.305 114.925 77.4627 114.223L76.9441 113.368C75.7909 114.068 74.6378 114.754 73.488 115.428L73.9934 116.291ZM80.9005 112.1C82.0387 111.383 83.1739 110.656 84.3027 109.918L83.7554 109.081C82.6317 109.816 81.5014 110.54 80.368 111.253L80.9005 112.1ZM87.6647 107.674C88.7807 106.914 89.8872 106.144 90.9809 105.365L90.4008 104.55C89.3129 105.325 88.2121 106.091 87.1016 106.848L87.6647 107.674ZM94.2494 102.98C95.3374 102.167 96.4087 101.345 97.4599 100.516L96.8405 99.7307C95.7965 100.554 94.7321 101.371 93.6506 102.179L94.2494 102.98ZM100.601 97.9635C101.647 97.087 102.668 96.2035 103.659 95.314L102.992 94.5697C102.009 95.4512 100.997 96.3273 99.9591 97.197L100.601 97.9635ZM106.62 92.5515C107.609 91.5908 108.56 90.6242 109.468 89.6533L108.737 88.9703C107.841 89.9287 106.901 90.8839 105.924 91.8345L106.62 92.5515ZM112.155 86.6132C113.043 85.5445 113.876 84.4718 114.645 83.3966L113.832 82.8147C113.078 83.8684 112.26 84.922 111.386 85.9737L112.155 86.6132ZM116.868 79.9782C117.577 78.7633 118.198 77.5465 118.722 76.3304L117.803 75.9349C117.297 77.11 116.695 78.2906 116.005 79.4743L116.868 79.9782ZM120.052 72.4515C120.222 71.777 120.358 71.1033 120.46 70.4309L119.471 70.2815C119.374 70.9205 119.244 71.5625 119.082 72.2072L120.052 72.4515ZM120.46 70.4309C120.565 69.7379 120.646 69.0517 120.706 68.3725L119.71 68.2848C119.652 68.9431 119.573 69.6087 119.471 70.2815L120.46 70.4309ZM120.799 64.2464C120.737 62.8455 120.578 61.4784 120.329 60.1457L119.346 60.3289C119.586 61.6159 119.74 62.9366 119.8 64.2909L120.799 64.2464ZM119.287 56.1454C118.846 54.8357 118.316 53.5646 117.705 52.3324L116.809 52.7764C117.4 53.9696 117.913 55.1992 118.34 56.4648L119.287 56.1454ZM115.643 48.7588C114.89 47.6205 114.066 46.5208 113.18 45.4602L112.412 46.1015C113.276 47.1351 114.078 48.205 114.809 49.3106L115.643 48.7588ZM110.385 42.441C109.415 41.4896 108.394 40.5749 107.327 39.6973L106.691 40.4696C107.737 41.3297 108.737 42.225 109.685 43.1549L110.385 42.441ZM104.059 37.2182C102.946 36.4385 101.797 35.6938 100.618 34.9844L100.102 35.8412C101.262 36.5393 102.392 37.2714 103.485 38.0372L104.059 37.2182ZM97.0441 32.9861C95.8357 32.3588 94.6042 31.7657 93.3554 31.2069L92.947 32.1197C94.1787 32.6708 95.3927 33.2556 96.5834 33.8737L97.0441 32.9861ZM89.575 29.6391C88.2989 29.1499 87.0111 28.6954 85.7173 28.2758L85.4088 29.227C86.6863 29.6413 87.9576 30.09 89.217 30.5728L89.575 29.6391ZM81.7932 27.1141C80.4658 26.758 79.1379 26.4386 77.8158 26.1565L77.6071 27.1344C78.9123 27.413 80.2233 27.7283 81.5341 28.0799L81.7932 27.1141ZM73.7923 25.4091C72.4226 25.1928 71.0659 25.018 69.7292 24.885L69.6302 25.8801C70.9474 26.0111 72.2851 26.1835 73.6363 26.3969L73.7923 25.4091ZM65.6452 24.6071C64.9549 24.5827 64.2724 24.5704 63.5988 24.5704V25.5704C64.2603 25.5704 64.931 25.5825 65.6098 25.6065L65.6452 24.6071ZM63.5988 24.5704C62.8523 24.5704 62.129 24.5928 61.4282 24.6361L61.49 25.6342C62.1696 25.5922 62.8722 25.5704 63.5988 25.5704V24.5704ZM57.1343 25.2111C55.6206 25.5342 54.2386 25.9704 52.9773 26.4984L53.3635 27.4208C54.5654 26.9177 55.8878 26.4997 57.3431 26.189L57.1343 25.2111ZM49.1486 28.6087C47.8986 29.4914 46.8203 30.4768 45.8902 31.5207L46.6368 32.1859C47.5191 31.1956 48.5411 30.262 49.7255 29.4255L49.1486 28.6087ZM43.3541 35.0729C42.5977 36.4042 42.0149 37.7503 41.5649 39.0376L42.5089 39.3675C42.942 38.1286 43.501 36.8386 44.2236 35.5669L43.3541 35.0729ZM40.4582 43.2382C40.3093 44.0465 40.2104 44.771 40.1433 45.3788L41.1373 45.4884C41.2021 44.901 41.2977 44.2007 41.4417 43.4194L40.4582 43.2382ZM40.1433 45.3788C40.0759 45.9907 40.0827 46.7181 40.1589 47.5269L41.1545 47.4331C41.0826 46.6693 41.0794 46.0133 41.1373 45.4884L40.1433 45.3788ZM40.9664 51.6467C41.3187 52.899 41.7796 54.2289 42.3515 55.5826L43.2726 55.1935C42.7169 53.878 42.27 52.5877 41.9291 51.3759L40.9664 51.6467ZM44.2035 59.3206C44.8863 60.509 45.6575 61.6799 46.5194 62.7965L47.311 62.1855C46.4792 61.1078 45.7328 59.9751 45.0706 58.8225L44.2035 59.3206ZM49.3303 65.9013C50.3496 66.8538 51.4587 67.7207 52.6595 68.4664L53.1871 67.6169C52.0468 66.9088 50.9892 66.0829 50.013 65.1706L49.3303 65.9013ZM56.4641 70.2791C57.1228 70.5046 57.8023 70.6945 58.5027 70.8451L58.7128 69.8674C58.0515 69.7253 57.41 69.546 56.788 69.333L56.4641 70.2791ZM58.5027 70.8451C59.1766 70.9899 59.8421 71.1093 60.4988 71.2044L60.6421 70.2147C60.0081 70.1229 59.3649 70.0075 58.7128 69.8674L58.5027 70.8451ZM64.5397 71.4911C65.9378 71.4844 67.2875 71.3648 68.5852 71.1451L68.4183 70.1591C67.1743 70.3697 65.8789 70.4846 64.5348 70.4911L64.5397 71.4911ZM72.5192 70.1291C73.8231 69.67 75.0587 69.1064 76.2218 68.4556L75.7335 67.5829C74.6191 68.2064 73.4357 68.7463 72.1872 69.1858L72.5192 70.1291ZM79.5865 66.1814C80.6563 65.3203 81.6395 64.3817 82.5314 63.3864L81.7866 62.7191C80.93 63.6751 79.986 64.5762 78.9595 65.4023L79.5865 66.1814ZM84.9887 60.156C85.3574 59.5806 85.6994 58.9951 86.0139 58.4026L85.1306 57.9338C84.8289 58.5021 84.5008 59.064 84.1468 59.6165L84.9887 60.156ZM86.0139 58.4026C86.2607 57.9376 86.5304 57.3722 86.8197 56.7212L85.9058 56.3152C85.6221 56.9537 85.3627 57.4964 85.1306 57.9338L86.0139 58.4026ZM88.2255 53.3045C88.6361 52.2491 89.0709 51.0916 89.5247 49.8527L88.5857 49.5088C88.1336 50.743 87.7011 51.8942 87.2935 52.942L88.2255 53.3045ZM90.7704 46.3867C91.1658 45.2686 91.571 44.1078 91.983 42.9155L91.0378 42.5889C90.6264 43.7794 90.2221 44.9379 89.8276 46.0534L90.7704 46.3867ZM93.1754 39.4365C93.5653 38.2904 93.9589 37.1265 94.3538 35.9535L93.406 35.6344C93.0114 36.8066 92.6182 37.9695 92.2287 39.1144L93.1754 39.4365ZM95.5226 32.469C95.9121 31.3045 96.3007 30.1396 96.6864 28.9827L95.7378 28.6664C95.3521 29.8232 94.9636 30.9878 94.5743 32.1519L95.5226 32.469ZM97.8488 25.4956C98.2433 24.3124 98.6322 23.1473 99.0131 22.0098L98.0648 21.6923C97.6838 22.8304 97.2947 23.9959 96.9001 25.1793L97.8488 25.4956ZM100.184 18.5283C100.593 17.3179 100.988 16.156 101.367 15.0563L100.421 14.731C100.042 15.8328 99.6459 16.9965 99.2364 18.2081L100.184 18.5283ZM102.58 11.5827C102.795 10.9783 103.001 10.4063 103.197 9.87037L102.259 9.52611C102.061 10.0656 101.853 10.6406 101.637 11.2474L102.58 11.5827Z" fill="#6685A7"/>
<circle cx="104.126" cy="4.90712" r="4.09169" stroke="#6685A7"/>
<circle cx="66.254" cy="111.654" r="2.0953" stroke="#6685A7"/>
<circle cx="14.2882" cy="62.8023" r="2.0953" stroke="#6685A7"/>
<path d="M26.4467 91.71L33.6337 98.897M33.4499 91.7287L26.2629 98.9157" stroke="#6685A7" stroke-linecap="round"/>
<path d="M89.2959 75.3799L94.8899 80.9739M94.7469 75.3945L89.1528 80.9885" stroke="#6685A7" stroke-linecap="round"/>
<path d="M27.8069 29.8623L33.4009 35.4563M33.2579 29.8769L27.6638 35.4709" stroke="#6685A7" stroke-linecap="round"/>
</svg>
