<svg width="26" height="25" viewBox="0 0 26 25" fill="none" xmlns="http://www.w3.org/2000/svg">
<path d="M4.13113 14.1111H10.7978C11.4089 14.1111 11.9089 13.6111 11.9089 13V4.11111C11.9089 3.5 11.4089 3 10.7978 3H4.13113C3.52002 3 3.02002 3.5 3.02002 4.11111V13C3.02002 13.6111 3.52002 14.1111 4.13113 14.1111ZM4.13113 23H10.7978C11.4089 23 11.9089 22.5 11.9089 21.8889V17.4444C11.9089 16.8333 11.4089 16.3333 10.7978 16.3333H4.13113C3.52002 16.3333 3.02002 16.8333 3.02002 17.4444V21.8889C3.02002 22.5 3.52002 23 4.13113 23ZM15.2422 23H21.9089C22.52 23 23.02 22.5 23.02 21.8889V13C23.02 12.3889 22.52 11.8889 21.9089 11.8889H15.2422C14.6311 11.8889 14.1311 12.3889 14.1311 13V21.8889C14.1311 22.5 14.6311 23 15.2422 23ZM14.1311 4.11111V8.55556C14.1311 9.16667 14.6311 9.66667 15.2422 9.66667H21.9089C22.52 9.66667 23.02 9.16667 23.02 8.55556V4.11111C23.02 3.5 22.52 3 21.9089 3H15.2422C14.6311 3 14.1311 3.5 14.1311 4.11111Z" fill="#335D8A"/>
</svg>
