<svg width="20" height="19" viewBox="0 0 20 19" fill="none" xmlns="http://www.w3.org/2000/svg">
<path d="M15.4 11C15.5667 11 15.7083 10.9417 15.825 10.825C15.9417 10.7083 16 10.5667 16 10.4C16 10.2333 15.9417 10.0917 15.825 9.975C15.7083 9.85833 15.5667 9.8 15.4 9.8H12.6C12.4333 9.8 12.2917 9.85833 12.175 9.975C12.0583 10.0917 12 10.2333 12 10.4C12 10.5667 12.0583 10.7083 12.175 10.825C12.2917 10.9417 12.4333 11 12.6 11H15.4ZM15.4 13.7C15.5667 13.7 15.7083 13.6417 15.825 13.525C15.9417 13.4083 16 13.2667 16 13.1C16 12.9333 15.9417 12.7917 15.825 12.675C15.7083 12.5583 15.5667 12.5 15.4 12.5H12.6C12.4333 12.5 12.2917 12.5583 12.175 12.675C12.0583 12.7917 12 12.9333 12 13.1C12 13.2667 12.0583 13.4083 12.175 13.525C12.2917 13.6417 12.4333 13.7 12.6 13.7H15.4ZM12.5 5H17.7C18.2 5 18.625 5.175 18.975 5.525C19.325 5.875 19.5 6.3 19.5 6.8V17.2C19.5 17.7 19.325 18.125 18.975 18.475C18.625 18.825 18.2 19 17.7 19H2.3C1.8 19 1.375 18.825 1.025 18.475C0.675 18.125 0.5 17.7 0.5 17.2V6.8C0.5 6.3 0.675 5.875 1.025 5.525C1.375 5.175 1.8 5 2.3 5H7.5V1.5C7.5 1.08333 7.646 0.729333 7.938 0.438C8.22933 0.146 8.58333 0 9 0H11C11.4167 0 11.7707 0.146 12.062 0.438C12.354 0.729333 12.5 1.08333 12.5 1.5V5ZM9 6.5H11V1.5H9V6.5ZM7 12.5C7.36667 12.5 7.68333 12.371 7.95 12.113C8.21667 11.8543 8.35 11.5333 8.35 11.15C8.35 10.7833 8.21667 10.4667 7.95 10.2C7.68333 9.93333 7.36667 9.8 7 9.8C6.63333 9.8 6.31667 9.93333 6.05 10.2C5.78333 10.4667 5.65 10.7833 5.65 11.15C5.65 11.5167 5.78333 11.8333 6.05 12.1C6.31667 12.3667 6.63333 12.5 7 12.5ZM4.15 15.2H9.85V14.925C9.85 14.6583 9.77933 14.4167 9.638 14.2C9.496 13.9833 9.3 13.8167 9.05 13.7C8.71667 13.55 8.38333 13.4417 8.05 13.375C7.71667 13.3083 7.36667 13.275 7 13.275C6.63333 13.275 6.28333 13.3083 5.95 13.375C5.61667 13.4417 5.28333 13.55 4.95 13.7C4.7 13.8167 4.50433 13.9833 4.363 14.2C4.221 14.4167 4.15 14.6583 4.15 14.925V15.2ZM7.5 6.5H2.3C2.21667 6.5 2.146 6.529 2.088 6.587C2.02933 6.64567 2 6.71667 2 6.8V17.2C2 17.2833 2.02933 17.3543 2.088 17.413C2.146 17.471 2.21667 17.5 2.3 17.5H17.7C17.7833 17.5 17.8543 17.471 17.913 17.413C17.971 17.3543 18 17.2833 18 17.2V6.8C18 6.71667 17.971 6.64567 17.913 6.587C17.8543 6.529 17.7833 6.5 17.7 6.5H12.5C12.5 6.95 12.346 7.31233 12.038 7.587C11.7293 7.86233 11.35 8 10.9 8H9.1C8.65 8 8.271 7.86233 7.963 7.587C7.65433 7.31233 7.5 6.95 7.5 6.5Z" fill="#00AAB5"/>
</svg>
