<svg width="26" height="25" viewBox="0 0 26 25" fill="none" xmlns="http://www.w3.org/2000/svg">
<mask id="mask0_2026_31095" style="mask-type:alpha" maskUnits="userSpaceOnUse" x="0" y="0" width="26" height="25">
<rect x="0.0200195" width="25" height="25" fill="#D9D9D9"/>
</mask>
<g mask="url(#mask0_2026_31095)">
<path d="M3.14506 20.8335V9.06266C2.84992 8.87169 2.6027 8.62864 2.40339 8.3335C2.20339 8.03836 2.10339 7.69114 2.10339 7.29183V4.16683C2.10339 3.59391 2.30756 3.10329 2.71589 2.69495C3.12353 2.28732 3.61381 2.0835 4.18673 2.0835H20.8534C21.4263 2.0835 21.9169 2.28732 22.3253 2.69495C22.7329 3.10329 22.9367 3.59391 22.9367 4.16683V7.29183C22.9367 7.69114 22.8367 8.03836 22.6367 8.3335C22.4374 8.62864 22.1902 8.87169 21.8951 9.06266V20.8335C21.8951 21.4064 21.6912 21.897 21.2836 22.3054C20.8753 22.713 20.3846 22.9168 19.8117 22.9168H5.22839C4.65548 22.9168 4.16485 22.713 3.75652 22.3054C3.34888 21.897 3.14506 21.4064 3.14506 20.8335ZM20.8534 7.29183V4.16683H4.18673V7.29183H20.8534ZM9.39506 14.5835H15.6451V12.5002H9.39506V14.5835Z" fill="#335D8A"/>
</g>
</svg>
