<svg width="24" height="24" viewBox="0 0 24 24" fill="none" xmlns="http://www.w3.org/2000/svg">
<path d="M3.30505 12.9428V17.1333C3.30505 19.0191 3.30505 23 9.17175 23C15.0384 23 13.5718 23 15.0384 23C20.9051 23 20.9051 19.4381 20.9051 17.1333V15.2476" stroke="#6685A7" stroke-miterlimit="10" stroke-linecap="round" stroke-linejoin="round"/>
<path d="M12.1049 10.0094V20.6951" stroke="#6685A7" stroke-miterlimit="10" stroke-linecap="round" stroke-linejoin="round"/>
<path d="M3.30477 12.9427H23.4192C23.4192 7.4951 20.2763 7.4951 20.2763 7.4951H4.14287C4.14287 7.4951 1 7.4951 1 12.9427" stroke="#6685A7" stroke-miterlimit="10" stroke-linecap="round" stroke-linejoin="round"/>
<path d="M9.80007 1C7.91435 1 7.4953 2.25715 7.4953 3.30477C7.4953 5.60954 10.0096 5.60954 12.3144 5.60954V4.56192C12.1048 2.25715 11.0572 1 9.80007 1Z" stroke="#6685A7" stroke-miterlimit="10" stroke-linecap="round" stroke-linejoin="round"/>
<path d="M9.80007 1C7.91435 1 7.4953 2.25715 7.4953 3.30477C7.4953 5.60954 10.0096 5.60954 12.3144 5.60954V4.56192C12.1048 2.25715 11.0572 1 9.80007 1Z" stroke="#6685A7" stroke-miterlimit="10" stroke-linecap="round" stroke-linejoin="round"/>
<path d="M13.1525 1.62857C13.5716 1.20953 13.9906 1 14.6192 1C16.5049 1 16.924 2.25715 16.924 3.30477C16.924 5.60954 14.4097 5.60954 12.1049 5.60954" stroke="#6685A7" stroke-miterlimit="10" stroke-linecap="round" stroke-linejoin="round"/>
</svg>
