<svg width="25" height="25" viewBox="0 0 25 25" fill="none" xmlns="http://www.w3.org/2000/svg">
<path d="M3.72375 13.4428V17.6333C3.72375 19.519 3.72375 23.5 9.59045 23.5C15.4571 23.5 13.9905 23.5 15.4571 23.5C21.3238 23.5 21.3238 19.9381 21.3238 17.6333V15.7476" stroke="#00346D" stroke-width="1.4" stroke-miterlimit="10" stroke-linecap="round"/>
<path d="M12.524 10.5094V21.1951" stroke="#00346D" stroke-width="1.4" stroke-miterlimit="10" stroke-linecap="round"/>
<path d="M3.7239 13.4427H23.8383C23.8383 7.99509 20.6954 7.99509 20.6954 7.99509H4.562C4.562 7.99509 1.41913 7.99509 1.41913 13.4427" stroke="#00346D" stroke-width="1.4" stroke-miterlimit="10" stroke-linecap="round"/>
<path d="M10.2188 1.49998C8.33305 1.49998 7.914 2.75713 7.914 3.80476C7.914 6.10953 10.4283 6.10953 12.7331 6.10953V5.06191C12.5235 2.75713 11.4759 1.49998 10.2188 1.49998Z" stroke="#00346D" stroke-width="1.4" stroke-miterlimit="10" stroke-linecap="round"/>
<path d="M10.2188 1.49998C8.33305 1.49998 7.914 2.75713 7.914 3.80476C7.914 6.10953 10.4283 6.10953 12.7331 6.10953V5.06191C12.5235 2.75713 11.4759 1.49998 10.2188 1.49998Z" stroke="#00346D" stroke-width="1.4" stroke-miterlimit="10" stroke-linecap="round"/>
<path d="M13.5717 2.12856C13.9907 1.70951 14.4098 1.49998 15.0383 1.49998C16.9241 1.49998 17.3431 2.75713 17.3431 3.80476C17.3431 6.10953 14.8288 6.10953 12.524 6.10953" stroke="#00346D" stroke-width="1.4" stroke-miterlimit="10" stroke-linecap="round"/>
</svg>
