<svg width="22" height="26" viewBox="0 0 22 26" fill="none" xmlns="http://www.w3.org/2000/svg">
<path d="M16.4664 6.06669C16.4664 7.40003 15.9331 8.46669 15.3998 9.26669C14.3331 10.6 12.9998 11.4 11.3998 11.4C9.79975 11.4 8.19974 10.6 7.39974 9.26669C6.59974 8.46669 6.33307 7.40003 6.33307 6.06669C6.33307 3.13335 8.73308 1 11.3998 1C14.0664 1 16.4664 3.13335 16.4664 6.06669Z" stroke="#00346D" stroke-width="1.2" stroke-miterlimit="10" stroke-linecap="round"/>
<path d="M16.4664 6.06669C16.4664 7.40003 15.9331 8.46669 15.3998 9.26669C14.3331 10.6 12.9998 11.4 11.3998 11.4C9.79975 11.4 8.19974 10.6 7.39974 9.26669C6.59974 8.46669 6.33307 7.40003 6.33307 6.06669C6.33307 3.13335 8.73308 1 11.3998 1C14.0664 1 16.4664 3.13335 16.4664 6.06669Z" stroke="#00346D" stroke-width="1.2" stroke-miterlimit="10" stroke-linecap="round"/>
<path d="M21.2667 18.3333C21.2667 23.4 15.9334 25 11.1334 25C6.06668 25 1 23.4 1 18.3333C1 16.2 1.53333 14.3333 2.6 12.7333C3.40001 11.6666 5.00002 11.1333 6.33335 12.1999C7.66669 13.2666 9.2667 13.7999 11.1334 13.7999C13 13.7999 14.6001 13.2666 15.9334 12.1999C17.0001 11.3999 18.8667 11.6666 19.6667 12.9999C20.7334 14.3333 21.2667 16.2 21.2667 18.3333Z" stroke="#00346D" stroke-width="1.2" stroke-miterlimit="10" stroke-linecap="round"/>
</svg>
