<svg width="28" height="22" viewBox="0 0 28 22" fill="none" xmlns="http://www.w3.org/2000/svg">
<path d="M15.3918 7.09731V20.9998" stroke="#00346D" stroke-width="1.4" stroke-miterlimit="10" stroke-linecap="round"/>
<path d="M1 7.82973H15.3903" stroke="#00346D" stroke-width="1.4" stroke-miterlimit="10" stroke-linecap="round"/>
<path d="M12.7074 20.9998H3.68294C2.21952 20.9998 1 19.7803 1 18.073V7.09731" stroke="#00346D" stroke-width="1.4" stroke-miterlimit="10" stroke-linecap="round"/>
<path d="M27.0979 7.82973H18.0734" stroke="#00346D" stroke-width="1.4" stroke-miterlimit="10" stroke-linecap="round"/>
<path d="M15.3918 7.09731V20.9998H24.4163C25.8797 20.9998 27.0992 19.7803 27.0992 18.073V7.09731" stroke="#00346D" stroke-width="1.4" stroke-miterlimit="10" stroke-linecap="round"/>
<path d="M27.0992 6.85369C27.0992 3.68294 24.4163 1 21.2455 1C18.0748 1 15.3918 3.43904 15.3918 6.85369" stroke="#00346D" stroke-width="1.4" stroke-miterlimit="10" stroke-linecap="round"/>
<path d="M13.6846 1C11.0016 1 8.80648 2.70733 8.07477 5.14636" stroke="#00346D" stroke-width="1.4" stroke-miterlimit="10" stroke-linecap="round"/>
<path d="M6.85369 1C3.68294 1 1 3.68294 1 6.85369" stroke="#00346D" stroke-width="1.4" stroke-miterlimit="10" stroke-linecap="round"/>
<path d="M7.83014 10.5122V18.8049" stroke="#00346D" stroke-width="1.4" stroke-miterlimit="10" stroke-linecap="round"/>
<path d="M6.36713 1H21.7331" stroke="#00346D" stroke-width="1.4" stroke-miterlimit="10" stroke-linecap="round"/>
</svg>
