<svg width="28" height="21" viewBox="0 0 28 21" fill="none" xmlns="http://www.w3.org/2000/svg">
<path d="M15.3918 6.59729V20.4998" stroke="#6685A7" stroke-miterlimit="10" stroke-linecap="round"/>
<path d="M1 7.32971H15.3903" stroke="#6685A7" stroke-miterlimit="10" stroke-linecap="round"/>
<path d="M12.7074 20.4998H3.68294C2.21952 20.4998 1 19.2803 1 17.573V6.59729" stroke="#6685A7" stroke-miterlimit="10" stroke-linecap="round"/>
<path d="M27.0979 7.32971H18.0734" stroke="#6685A7" stroke-miterlimit="10" stroke-linecap="round"/>
<path d="M15.3918 6.59729V20.4998H24.4163C25.8797 20.4998 27.0992 19.2803 27.0992 17.573V6.59729" stroke="#6685A7" stroke-miterlimit="10" stroke-linecap="round"/>
<path d="M27.0992 6.35368C27.0992 3.18293 24.4163 0.499985 21.2455 0.499985C18.0748 0.499985 15.3918 2.93902 15.3918 6.35368" stroke="#6685A7" stroke-miterlimit="10" stroke-linecap="round"/>
<path d="M13.6846 0.499985C11.0016 0.499985 8.80648 2.20731 8.07477 4.64635" stroke="#6685A7" stroke-miterlimit="10" stroke-linecap="round"/>
<path d="M6.85369 0.499985C3.68294 0.499985 1 3.18293 1 6.35368" stroke="#6685A7" stroke-miterlimit="10" stroke-linecap="round"/>
<path d="M7.83014 10.0121V18.3049" stroke="#6685A7" stroke-miterlimit="10" stroke-linecap="round"/>
<path d="M6.36713 0.499985H21.7331" stroke="#6685A7" stroke-miterlimit="10" stroke-linecap="round"/>
</svg>
