<svg width="28" height="20" viewBox="0 0 28 20" fill="none" xmlns="http://www.w3.org/2000/svg">
<path d="M13.5851 10.9085H1.08625C0.963568 10.9143 0.840608 10.9087 0.718969 10.8918C0.504714 10.8456 0.31428 10.7238 0.182621 10.5486C0.050963 10.3734 -0.0130865 10.1565 0.0022267 9.93792C0.0175399 9.71929 0.111189 9.51352 0.265987 9.35838C0.420784 9.20323 0.626342 9.10912 0.844935 9.09331C0.929925 9.08876 1.01568 9.09331 1.10067 9.09331H26.1264C26.2493 9.08757 26.3724 9.09214 26.4945 9.10697C26.7104 9.14885 26.9039 9.2675 27.0392 9.44098C27.1745 9.61447 27.2424 9.83105 27.2303 10.0507C27.2183 10.2704 27.1272 10.4782 26.9738 10.6359C26.8204 10.7936 26.6151 10.8904 26.3958 10.9085C26.3017 10.9145 26.2069 10.9085 26.112 10.9085H13.5851Z" fill="white"/>
<path d="M5.43205 1.81894C5.43205 3.30095 5.43205 4.73895 5.43205 6.17696C5.4377 6.29973 5.43109 6.42277 5.41232 6.54423C5.36833 6.76512 5.24365 6.96171 5.0626 7.09567C4.88154 7.22962 4.65708 7.29134 4.43298 7.26879C4.20889 7.24624 4.00123 7.14103 3.85049 6.97369C3.69976 6.80634 3.61675 6.58885 3.61766 6.36363C3.61083 5.13355 3.61766 3.90271 3.61766 2.67263C3.61766 2.10426 3.61766 1.53437 3.61766 0.969038C3.62145 0.381696 3.99177 0.0037942 4.57304 0.00227652C6.36137 -0.00075884 8.15046 -0.00075884 9.94031 0.00227652C10.489 0.00227652 10.8934 0.404462 10.8881 0.921232C10.882 1.42586 10.4821 1.81514 9.94638 1.81742C8.55543 1.82197 7.16372 1.81742 5.77276 1.81742L5.43205 1.81894Z" fill="white"/>
<path d="M21.7959 1.81899H20.6918C19.5459 1.81899 18.4008 1.82354 17.2558 1.81899C17.0331 1.82112 16.8175 1.74123 16.6501 1.59454C16.4826 1.44786 16.375 1.24466 16.3478 1.02371C16.3206 0.802758 16.3757 0.579522 16.5026 0.396595C16.6294 0.213667 16.8192 0.0838528 17.0357 0.0319182C17.1375 0.0106268 17.2414 0.00145688 17.3453 0.00459993C19.0962 0.00459993 20.8473 0.00459993 22.5987 0.00459993C23.2513 0.00459993 23.6126 0.369601 23.6133 1.02827C23.6133 2.76956 23.6133 4.5111 23.6133 6.25289C23.6133 6.85996 23.246 7.27125 22.7111 7.27504C22.1761 7.27884 21.7959 6.86148 21.7959 6.23695C21.7951 4.77694 21.7959 3.31997 21.7959 1.81899Z" fill="white"/>
<path d="M5.43205 18.1802C6.92089 18.1802 8.368 18.1802 9.8151 18.1802C9.93782 18.1752 10.0607 18.1836 10.1816 18.2053C10.3966 18.2539 10.5865 18.3793 10.7158 18.5578C10.845 18.7364 10.9047 18.956 10.8837 19.1755C10.8626 19.3949 10.7623 19.5991 10.6015 19.7499C10.4407 19.9007 10.2305 19.9877 10.0101 19.9946C9.81131 20.0037 9.61249 19.9946 9.41368 19.9946C7.82315 19.9946 6.23287 19.9946 4.64285 19.9946C3.98114 19.9946 3.61538 19.6357 3.61462 18.9846C3.61462 17.2332 3.61462 15.4821 3.61462 13.7312C3.61462 13.1309 3.99404 12.7204 4.53054 12.7242C5.06704 12.728 5.43129 13.1415 5.43205 13.7471C5.43205 15.11 5.43205 16.4728 5.43205 17.8357V18.1802Z" fill="white"/>
<path d="M21.7958 18.1802C21.7958 16.6488 21.792 15.163 21.7958 13.6772C21.7958 12.9988 22.4089 12.5541 23.0145 12.7863C23.3863 12.9282 23.6049 13.2121 23.6072 13.6082C23.6163 15.4446 23.6163 17.281 23.6072 19.1173C23.6076 19.3487 23.5163 19.5707 23.3533 19.7349C23.1903 19.899 22.9688 19.9918 22.7375 19.993C20.9011 20.0022 19.0645 20.0022 17.2276 19.993C16.9913 19.9836 16.768 19.8821 16.6055 19.7102C16.4431 19.5384 16.3542 19.3098 16.358 19.0733C16.3617 18.8368 16.4578 18.6112 16.6257 18.4446C16.7936 18.278 17.0199 18.1836 17.2564 18.1817C18.6572 18.1756 20.0581 18.1817 21.4596 18.1817L21.7958 18.1802Z" fill="white"/>
</svg>
