<svg width="18" height="18" viewBox="0 0 18 18" fill="none" xmlns="http://www.w3.org/2000/svg">
<path d="M12.8439 1H5.27317C4.49268 1 3.79024 1.39024 3.4 2.01463L1.29268 5.52683C0.902439 6.22927 0.902439 7.0878 1.29268 7.79024C2.69756 9.97561 5.66342 13.9561 7.61463 16.2976C8.39512 17.2341 9.8 17.2341 10.5024 16.2976C12.3756 14.0341 15.1854 10.2098 16.6683 8.02439C17.2146 7.2439 17.2146 6.15122 16.7463 5.29268L14.561 1.93659C14.2488 1.39024 13.5463 1 12.8439 1Z" stroke="white" stroke-miterlimit="10" stroke-linecap="round" stroke-linejoin="round"/>
<path d="M3.47754 6.69812H17.058" stroke="white" stroke-miterlimit="10" stroke-linecap="round" stroke-linejoin="round"/>
<path d="M10.1904 13.8L11.9075 6.69756L10.5807 1" stroke="white" stroke-miterlimit="10" stroke-linecap="round" stroke-linejoin="round"/>
<path d="M7.22452 1L6.13184 6.69756L8.00501 13.878" stroke="white" stroke-miterlimit="10" stroke-linecap="round" stroke-linejoin="round"/>
</svg>
