<svg width="26" height="25" viewBox="0 0 26 25" fill="none" xmlns="http://www.w3.org/2000/svg">
<path d="M20.2433 13C20.2433 12.77 20.2333 12.55 20.2133 12.32L22.0733 10.91C22.4733 10.61 22.5833 10.05 22.3333 9.61L20.4633 6.38C20.2133 5.94 19.6733 5.76 19.2133 5.96L17.0633 6.87C16.6933 6.61 16.3033 6.38 15.8933 6.19L15.6033 3.88C15.5433 3.38 15.1133 3 14.6133 3H10.8833C10.3733 3 9.94332 3.38 9.88332 3.88L9.59332 6.19C9.18332 6.38 8.79332 6.61 8.42332 6.87L6.27332 5.96C5.81332 5.76 5.27332 5.94 5.02332 6.38L3.15332 9.62C2.90332 10.06 3.01332 10.61 3.41332 10.92L5.27332 12.33C5.25332 12.55 5.24332 12.77 5.24332 13C5.24332 13.23 5.25332 13.45 5.27332 13.68L3.41332 15.09C3.01332 15.39 2.90332 15.95 3.15332 16.39L5.02332 19.62C5.27332 20.06 5.81332 20.24 6.27332 20.04L8.42332 19.13C8.79332 19.39 9.18332 19.62 9.59332 19.81L9.88332 22.12C9.94332 22.62 10.3733 23 10.8733 23H14.6033C15.1033 23 15.5333 22.62 15.5933 22.12L15.8833 19.81C16.2933 19.62 16.6833 19.39 17.0533 19.13L19.2033 20.04C19.6633 20.24 20.2033 20.06 20.4533 19.62L22.3233 16.39C22.5733 15.95 22.4633 15.4 22.0633 15.09L20.2033 13.68C20.2333 13.45 20.2433 13.23 20.2433 13ZM12.7833 16.5C10.8533 16.5 9.28332 14.93 9.28332 13C9.28332 11.07 10.8533 9.5 12.7833 9.5C14.7133 9.5 16.2833 11.07 16.2833 13C16.2833 14.93 14.7133 16.5 12.7833 16.5Z" fill="#335D8A"/>
</svg>
