<svg width="21" height="20" viewBox="0 0 21 20" fill="none" xmlns="http://www.w3.org/2000/svg">
<path d="M16.7808 14.5498L16.5393 13.5838C16.5393 13.1008 16.7808 12.3764 17.0223 12.1349L19.9202 9.23699C21.3691 7.78805 20.8861 6.5806 18.9542 6.33911L14.8489 5.85613C14.3659 5.85613 13.8829 5.37315 13.6414 4.89017L11.951 1.26782C10.9851 -0.422607 9.7776 -0.422607 8.81164 1.26782L7.12122 4.89017C6.87973 5.37315 6.39675 5.85613 5.91377 5.85613L1.80844 6.33911C-0.123483 6.5806 -0.606461 8.02954 0.842478 9.23699L3.74036 12.1349C3.98185 12.3764 4.22334 13.1008 4.22334 13.5838L3.49887 17.6891C3.25738 19.6211 4.22334 20.3455 5.91377 19.621L9.53611 17.6891C10.0191 17.4476 10.7436 17.4476 11.2265 17.6891L14.8489 19.621C16.5393 20.587 17.7468 19.6211 17.2638 17.6891" fill="#F9D923"/>
</svg>
