<?xml version="1.0" encoding="UTF-8" standalone="no"?>
<svg
   xmlns:dc="http://purl.org/dc/elements/1.1/"
   xmlns:cc="http://creativecommons.org/ns#"
   xmlns:rdf="http://www.w3.org/1999/02/22-rdf-syntax-ns#"
   xmlns:svg="http://www.w3.org/2000/svg"
   xmlns="http://www.w3.org/2000/svg"
   xmlns:sodipodi="http://sodipodi.sourceforge.net/DTD/sodipodi-0.dtd"
   xmlns:inkscape="http://www.inkscape.org/namespaces/inkscape"
   version="1.1"
   id="svg2"
   xml:space="preserve"
   width="1314.5468"
   height="541.94666"
   viewBox="0 0 1314.5468 541.94666"
   sodipodi:docname="Logo BTS.eps"><metadata
     id="metadata8"><rdf:RDF><cc:Work
         rdf:about=""><dc:format>image/svg+xml</dc:format><dc:type
           rdf:resource="http://purl.org/dc/dcmitype/StillImage" /></cc:Work></rdf:RDF></metadata><defs
     id="defs6" /><sodipodi:namedview
     pagecolor="#ffffff"
     bordercolor="#666666"
     borderopacity="1"
     objecttolerance="10"
     gridtolerance="10"
     guidetolerance="10"
     inkscape:pageopacity="0"
     inkscape:pageshadow="2"
     inkscape:window-width="640"
     inkscape:window-height="480"
     id="namedview4" /><g
     id="g10"
     inkscape:groupmode="layer"
     inkscape:label="ink_ext_XXXXXX"
     transform="matrix(1.3333333,0,0,-1.3333333,0,541.94667)"><g
       id="g12"
       transform="scale(0.1)"><path
         d="m 2797.06,3291.86 c -63.46,-130.78 -261.63,-196.17 -594.61,-196.17 h -535.16 l 178.39,380.44 h 541.1 c 328.98,0 465.74,-61.49 410.28,-184.27 z M 2493.8,2382.38 c -35.67,-75.33 -111.02,-132.82 -225.95,-172.39 -115.02,-39.66 -257.72,-59.44 -428.12,-59.44 h -612.44 l 214.06,451.77 h 618.39 c 174.39,0 299.26,-17.84 374.6,-53.51 75.26,-35.66 95.14,-91.2 59.46,-166.43 z m 1328.95,1515.78 c -208.11,110.91 -540.17,166.45 -995.97,166.45 H 1215.4 L 49.9648,1556.12 H 1720.81 c 495.47,0 916.63,66.31 1263.55,199.13 346.82,132.73 575.74,318.02 686.77,555.8 71.35,154.54 62.43,284.3 -26.76,389.34 -89.19,104.96 -236.91,177.31 -442.98,216.97 210.06,47.56 379.52,111.92 508.39,193.19 128.77,81.18 222.97,185.21 282.44,312.08 95.14,206.01 38.65,364.56 -169.47,475.53"
         style="fill:#3fadb4;fill-opacity:1;fill-rule:nonzero;stroke:none"
         id="path14" /><path
         d="M 7886.9,4064.61 H 4664.12 L 4247.9,3416.68 H 5341.98 L 4479.79,1556.11 h 1195.17 l 862.17,1860.57 h 1046.52 l 303.25,647.93"
         style="fill:#3fadb4;fill-opacity:1;fill-rule:nonzero;stroke:none"
         id="path16" /><path
         d="m 9742.08,2923.31 c -130.83,170.34 -259.68,342.72 -386.51,517.15 -134.8,190.22 -174.47,344.77 -118.91,463.65 11.89,27.68 26.75,51.46 44.59,71.34 17.84,19.78 44.59,47.55 80.28,83.22 H 8190.14 c -19.87,-19.88 -44.59,-48.58 -74.32,-86.19 -29.73,-37.71 -52.58,-72.36 -68.38,-104.03 -79.35,-166.44 -57.51,-354.71 65.41,-564.71 31.68,-55.54 154.6,-223.94 368.65,-505.26 134.72,-174.43 184.33,-301.21 148.65,-380.44 -31.77,-67.43 -92.16,-123.9 -181.36,-169.41 -89.19,-45.61 -185.34,-68.36 -288.37,-68.36 H 6983.09 l -285.41,-624.16 h 1320.03 c 440.01,0 828.46,77.28 1165.43,231.83 317.09,146.57 527.16,328.89 630.28,546.88 79.25,174.34 55.47,370.5 -71.34,588.49 v 0"
         style="fill:#3fadb4;fill-opacity:1;fill-rule:nonzero;stroke:none"
         id="path18" /><path
         d="m 5021.57,512.629 h -310.63 c 8.33,118.633 62.19,177.98 161.58,177.98 48.42,0 85.38,-15.05 110.84,-45.129 25.47,-30.082 38.21,-71.878 38.21,-125.332 z M 4870.01,813.43 c -98.54,0 -176.42,-30.289 -233.6,-90.871 -57.21,-60.59 -85.8,-145.61 -85.8,-255.059 0,-108.621 31.09,-193.23 93.31,-253.801 62.2,-60.59 148.84,-90.871 259.91,-90.871 80.16,0 152.82,16.293 217.95,48.883 16.7,8.348 22.95,20.469 18.79,36.348 l -21.29,58.902 c -7.52,20.059 -20.04,25.891 -37.58,17.551 -51.79,-25.91 -106.48,-38.852 -164.09,-38.852 -57.61,0 -104.18,14.41 -139.66,43.238 -35.5,28.832 -56.58,68.313 -63.26,118.442 h 427.13 c 20.04,0 30.06,10.031 30.06,30.082 v 61.418 c 0,95.25 -26.31,171.488 -78.91,228.738 -52.61,57.223 -126.95,85.852 -222.96,85.852 z M 6959.29,663.031 H 6695 c -20.88,0 -31.31,-10.461 -31.31,-31.34 V 555.23 c 0,-19.218 10.43,-28.808 31.31,-28.808 h 136.53 V 304.57 c -36.76,-16.73 -81.42,-25.07 -134.03,-25.07 -92.69,0 -160.95,23.602 -204.8,70.809 -43.84,47.203 -65.76,123.871 -65.76,229.992 0,105.289 22.33,181.527 67.02,228.738 44.66,47.199 117.11,70.813 217.32,70.813 59.28,0 117.75,-12.122 175.37,-36.34 20.85,-9.203 35.06,-4.192 42.58,15.047 l 31.31,77.703 c 6.68,15.859 0.41,28.828 -18.79,38.859 -66.81,40.099 -151.15,60.149 -253.01,60.149 -293.11,0 -439.66,-151.661 -439.66,-454.969 0,-304.153 142.79,-456.223 428.38,-456.223 120.25,0 215.45,20.883 285.59,62.672 18.36,11.699 27.56,26.328 27.56,43.871 v 401.07 c 0,20.879 -10.45,31.34 -31.32,31.34 z M 4382.76,1017.73 h -111.48 c -18.38,0 -27.55,-9.61 -27.55,-28.832 V 901.16 c 0,-19.23 9.17,-28.832 27.55,-28.832 h 111.48 c 18.36,0 27.56,9.602 27.56,28.832 v 87.738 c 0,19.222 -9.2,28.832 -27.56,28.832 z M 7947.58,256.941 c -104.39,0 -156.57,70.598 -156.57,211.821 0,141.187 52.18,211.816 156.57,211.816 105.23,0 157.84,-70.629 157.84,-211.816 0,-141.223 -52.61,-211.821 -157.84,-211.821 z m 0,556.489 c -101.04,0 -180.58,-29.668 -238.61,-88.989 -58.05,-59.332 -87.06,-144.57 -87.06,-255.679 0,-111.141 29.01,-196.371 87.06,-255.684 58.03,-59.348 137.57,-89 238.61,-89 101.04,0 180.79,29.652 239.25,89 58.44,59.313 87.69,144.543 87.69,255.684 0,111.109 -29.25,196.347 -87.69,255.679 -58.46,59.321 -138.21,88.989 -239.25,88.989 z M 9611.01,307.711 c -25.89,-33.02 -65.57,-49.52 -118.99,-49.52 -108.57,0 -162.84,70.188 -162.84,210.571 0,140.367 54.27,210.558 162.84,210.558 53.42,0 93.1,-16.511 118.99,-49.5 25.88,-33.019 38.83,-86.699 38.83,-161.058 0,-74.383 -12.95,-128.063 -38.83,-161.051 z m 134.66,418.609 c -48.86,58.071 -117.55,87.11 -206.06,87.11 -45.93,0 -88.74,-9.61 -128.38,-28.828 -39.68,-19.231 -68.28,-45.551 -85.81,-78.954 l -3.75,67.672 c -1.68,16.711 -11.71,25.071 -30.06,25.071 h -97.71 c -20.04,0 -30.06,-9.621 -30.06,-28.832 V 28.8281 C 9163.84,9.62109 9173.86,0 9193.9,0 h 107.73 c 19.2,0 28.8,9.62109 28.8,28.8281 V 226.859 c 17.54,-34.269 45.09,-59.961 82.67,-77.078 37.58,-17.109 79.74,-25.703 126.51,-25.703 88.51,0 157.2,29.031 206.06,87.113 48.85,58.071 73.27,143.93 73.27,257.571 0,113.617 -24.42,199.468 -73.27,257.558 z m -2227.73,77.078 c -48.44,0 -90.18,-13.367 -125.26,-40.109 -35.07,-26.75 -59.71,-56.82 -73.9,-90.23 l -6.27,99.011 c -1.68,17.551 -11.69,26.321 -30.05,26.321 h -98.96 c -20.04,0 -30.06,-9.621 -30.06,-28.832 v -602.86 c 0,-19.23 10.02,-28.828 30.06,-28.828 h 107.73 c 19.19,0 28.8,9.598 28.8,28.828 v 288.27 c 0,50.14 15.03,93.793 45.09,130.98 30.07,37.172 68.06,55.77 113.99,55.77 6.68,0 14.19,-0.43 22.55,-1.25 8.34,-0.84 14.18,-1.258 17.53,-1.258 15.85,0 23.8,7.519 23.8,22.57 V 778.34 c 0,10.019 -1.87,16.699 -5.63,20.051 -3.76,3.328 -10.24,5.007 -19.42,5.007 z m 1451.75,-5.007 h -108.97 c -19.22,0 -28.81,-9.621 -28.81,-28.832 V 412.352 c 0,-45.114 -13.16,-81.051 -39.46,-107.782 -26.3,-26.761 -62.01,-40.109 -107.09,-40.109 -42.59,0 -72.66,11.07 -90.19,33.219 -17.54,22.129 -26.31,54.519 -26.31,97.129 v 374.75 c 0,19.211 -9.2,28.832 -27.56,28.832 h -107.72 c -20.04,0 -30.06,-9.621 -30.06,-28.832 V 363.48 c 0,-159.609 75.57,-239.402 226.72,-239.402 96.01,0 164.09,35.102 204.17,105.293 l 5.01,-67.68 c 1.67,-15.89 11.69,-23.82 30.07,-23.82 h 100.2 c 18.36,0 27.56,9.598 27.56,28.828 v 602.86 c 0,19.211 -9.2,28.832 -27.56,28.832 z m -4588.18,0 h -108.98 c -19.21,0 -28.8,-9.621 -28.8,-28.832 v -602.86 c 0,-19.23 9.59,-28.828 28.8,-28.828 h 108.98 c 19.2,0 28.81,9.598 28.81,28.828 v 602.86 c 0,19.211 -9.61,28.832 -28.81,28.832 z m 1342.75,-354.7 c -34.26,29.239 -85.17,55.969 -152.82,80.219 -34.25,11.692 -59.08,20.879 -74.53,27.57 -15.46,6.668 -29.43,16.079 -41.95,28.2 -12.53,12.101 -18.79,26.511 -18.79,43.242 0,23.379 8.95,40.109 26.92,50.137 17.95,10.019 46.54,15.043 85.8,15.043 41.75,0 89.35,-8.364 142.8,-25.071 18.36,-5.859 30.06,0.41 35.07,18.797 l 18.79,62.66 c 5.01,15.043 -0.84,26.332 -17.54,33.852 -55.94,23.379 -124,35.09 -204.17,35.09 -81,0 -143.01,-15.879 -186,-47.629 -43.02,-31.77 -64.51,-78.129 -64.51,-139.121 0,-66.02 23.36,-115.739 70.14,-149.149 22.55,-15.883 67.64,-35.531 135.28,-58.91 48.42,-16.723 82.87,-31.762 103.33,-45.109 20.46,-13.383 30.7,-31.34 30.7,-53.903 0,-25.91 -10.65,-44.078 -31.95,-54.519 -21.28,-10.461 -54.48,-15.672 -99.58,-15.672 -52.6,0 -104.8,9.184 -156.57,27.57 -18.38,5.84 -30.06,-0.429 -35.07,-18.797 l -18.78,-65.171 c -5.02,-15.879 1.25,-26.75 18.78,-32.59 60.12,-24.219 132.35,-36.352 216.69,-36.352 179.53,0 269.31,63.934 269.31,191.774 0,55.968 -17.12,98.578 -51.35,127.839 z m -4306.34,-185.5 c -52.61,0 -92.07,16.5 -118.37,49.52 -26.31,32.988 -39.46,86.668 -39.46,161.051 0,74.359 13.15,128.039 39.46,161.058 26.3,32.989 65.76,49.5 118.37,49.5 108.54,0 162.83,-70.191 162.83,-210.558 0,-140.383 -54.29,-210.571 -162.83,-210.571 z m 298.11,762.039 h -107.72 c -19.22,0 -28.81,-9.2 -28.81,-27.57 V 709.398 c -16.72,32.59 -44.47,58.071 -83.3,76.461 -38.83,18.371 -80.79,27.571 -125.88,27.571 -88.53,0 -157.2,-29.039 -206.06,-87.11 -48.84,-58.09 -73.27,-143.941 -73.27,-257.558 0,-113.641 24.43,-199.5 73.27,-257.571 48.86,-58.082 117.53,-87.113 206.06,-87.113 46.75,0 89.75,9.211 129.01,27.582 39.24,18.371 67.64,44.692 85.18,78.961 l 3.76,-68.93 c 1.66,-15.89 11.68,-23.82 30.06,-23.82 h 97.7 c 20.04,0 30.06,9.598 30.06,28.828 V 992.66 c 0,18.37 -10.02,27.57 -30.06,27.57 z m 2382.4,-216.832 c -48.43,0 -90.18,-13.367 -125.26,-40.109 -35.07,-26.75 -59.71,-56.82 -73.9,-90.23 l -6.26,99.011 c -1.68,17.551 -11.71,26.321 -30.06,26.321 h -98.96 c -20.04,0 -30.06,-9.621 -30.06,-28.832 v -602.86 c 0,-19.23 10.02,-28.828 30.06,-28.828 h 107.72 c 19.21,0 28.82,9.598 28.82,28.828 v 288.27 c 0,50.14 15.03,93.793 45.09,130.98 30.06,37.172 68.05,55.77 113.98,55.77 6.68,0 14.19,-0.43 22.55,-1.25 8.34,-0.84 14.19,-1.258 17.54,-1.258 15.85,0 23.8,7.519 23.8,22.57 V 778.34 c 0,10.019 -1.88,16.699 -5.64,20.051 -3.76,3.328 -10.24,5.007 -19.42,5.007 z m -1624.6,-5.007 h -108.98 c -19.22,0 -28.81,-9.621 -28.81,-28.832 V 412.352 c 0,-45.114 -13.14,-81.051 -39.45,-107.782 -26.31,-26.761 -62.01,-40.109 -107.1,-40.109 -42.59,0 -72.65,11.07 -90.18,33.219 -17.54,22.129 -26.31,54.519 -26.31,97.129 v 374.75 c 0,19.211 -9.2,28.832 -27.56,28.832 h -107.72 c -20.04,0 -30.06,-9.621 -30.06,-28.832 V 363.48 c 0,-159.609 75.57,-239.402 226.72,-239.402 96.02,0 164.09,35.102 204.17,105.293 l 5.01,-67.68 c 1.66,-15.89 11.68,-23.82 30.06,-23.82 h 100.21 c 18.36,0 27.56,9.598 27.56,28.828 v 602.86 c 0,19.211 -9.2,28.832 -27.56,28.832 z m 610.01,-354.7 c -34.25,29.239 -85.18,55.969 -152.82,80.219 -34.25,11.692 -59.09,20.879 -74.53,27.57 -15.46,6.668 -29.43,16.079 -41.96,28.2 -12.52,12.101 -18.79,26.511 -18.79,43.242 0,23.379 8.97,40.109 26.94,50.137 17.94,10.019 46.53,15.043 85.8,15.043 41.74,0 89.34,-8.364 142.79,-25.071 18.36,-5.859 30.06,0.41 35.07,18.797 l 18.79,62.66 c 5.01,15.043 -0.84,26.332 -17.53,33.852 -55.96,23.379 -124.01,35.09 -204.18,35.09 -81,0 -143,-15.879 -186.01,-47.629 -43.02,-31.77 -64.5,-78.129 -64.5,-139.121 0,-66.02 23.36,-115.739 70.14,-149.149 22.55,-15.883 67.64,-35.531 135.28,-58.91 48.42,-16.723 82.87,-31.762 103.34,-45.109 20.45,-13.383 30.69,-31.34 30.69,-53.903 0,-25.91 -10.65,-44.078 -31.94,-54.519 -21.3,-10.461 -54.49,-15.672 -99.59,-15.672 -52.6,0 -104.8,9.184 -156.57,27.57 -18.38,5.84 -30.06,-0.429 -35.07,-18.797 L 2630.4,193.02 c -5.01,-15.879 1.26,-26.75 18.79,-32.59 60.13,-24.219 132.34,-36.352 216.7,-36.352 179.53,0 269.31,63.934 269.31,191.774 0,55.968 -17.13,98.578 -51.36,127.839 z M 3606.8,260.699 c -3.76,4.172 -9.83,5.832 -18.16,5.012 -29.25,-4.191 -46.78,-6.27 -52.61,-6.27 -34.25,0 -57.21,6.68 -68.9,20.059 -11.7,13.352 -17.53,38.012 -17.53,73.949 V 658.02 h 137.78 c 19.2,0 28.81,9.589 28.81,28.82 v 70.191 c 0,19.207 -9.61,28.828 -28.81,28.828 H 3448.34 V 940.02 c 0,17.55 -10.01,26.32 -30.06,26.32 h -100.2 c -19.22,0 -28.81,-8.77 -28.81,-26.32 V 785.859 h -71.4 c -20.04,0 -30.06,-9.621 -30.06,-28.828 V 686.84 c 0,-19.231 10.02,-28.82 30.06,-28.82 h 68.89 V 335.898 c 0,-75.199 15.85,-128.679 47.6,-160.429 31.72,-31.758 84.34,-47.629 157.83,-47.629 42.59,0 77.66,4.609 105.21,13.789 16.7,5.012 24.63,14.609 23.8,28.832 l -7.51,70.187 c -0.84,9.18 -3.13,15.864 -6.89,20.051 z M 144.047,1020.23 H 30.0625 C 10.0234,1020.23 0,1010.21 0,990.16 V 169.211 c 0,-20.902 10.0234,-31.34 30.0625,-31.34 H 144.047 c 20.863,0 31.32,10.438 31.32,31.34 V 990.16 c 0,20.05 -10.457,30.07 -31.32,30.07 z m 586.211,-206.8 c -98.543,0 -168.688,-35.09 -210.434,-105.282 l -6.265,65.172 c -1.68,16.711 -11.27,25.071 -28.809,25.071 h -98.953 c -19.219,0 -28.809,-9.621 -28.809,-28.832 v -602.86 c 0,-19.23 9.59,-28.828 28.809,-28.828 H 493.52 c 19.199,0 28.808,9.598 28.808,28.828 v 352.192 c 0,46.777 12.723,83.757 38.203,110.929 25.465,27.129 61.574,40.731 108.352,40.731 43.414,0 74.531,-10.871 93.32,-32.59 18.789,-21.742 28.184,-54.742 28.184,-99.012 v -372.25 c 0,-19.23 10.019,-28.828 30.058,-28.828 h 107.723 c 19.199,0 28.809,9.598 28.809,28.828 V 569.02 c 0,77.71 -18.789,137.878 -56.368,180.492 -37.578,42.609 -94.375,63.918 -170.351,63.918"
         style="fill:#65686c;fill-opacity:1;fill-rule:nonzero;stroke:none"
         id="path20" /></g></g></svg>
