<svg width="20" height="21" viewBox="0 0 20 21" fill="none" xmlns="http://www.w3.org/2000/svg">
<mask id="mask0_1980_29399" style="mask-type:alpha" maskUnits="userSpaceOnUse" x="0" y="0" width="20" height="21">
<rect y="0.5" width="20" height="20" fill="#D9D9D9"/>
</mask>
<g mask="url(#mask0_1980_29399)">
<path d="M6 18.458C5.58333 18.458 5.22933 18.3123 4.938 18.021C4.646 17.729 4.5 17.3747 4.5 16.958C4.5 16.5413 4.646 16.1873 4.938 15.896C5.22933 15.604 5.58333 15.458 6 15.458C6.41667 15.458 6.77067 15.604 7.062 15.896C7.354 16.1873 7.5 16.5413 7.5 16.958C7.5 17.3747 7.354 17.729 7.062 18.021C6.77067 18.3123 6.41667 18.458 6 18.458ZM14.062 18.458C13.646 18.458 13.292 18.3123 13 18.021C12.708 17.729 12.562 17.3747 12.562 16.958C12.562 16.5413 12.708 16.1873 13 15.896C13.292 15.604 13.646 15.458 14.062 15.458C14.4793 15.458 14.8337 15.604 15.125 15.896C15.4163 16.1873 15.562 16.5413 15.562 16.958C15.562 17.3747 15.4163 17.729 15.125 18.021C14.8337 18.3123 14.4793 18.458 14.062 18.458ZM5.125 5.354L7.167 9.688H12.958L15.208 5.583C15.236 5.52767 15.236 5.47567 15.208 5.427C15.1807 5.37833 15.139 5.354 15.083 5.354H5.125ZM5.979 14.333C5.42367 14.333 5 14.0867 4.708 13.594C4.41667 13.1007 4.41 12.611 4.688 12.125L5.833 10.021L2.833 3.708H1.896C1.72933 3.708 1.58 3.642 1.448 3.51C1.316 3.378 1.25 3.222 1.25 3.042C1.25 2.86133 1.316 2.705 1.448 2.573C1.58 2.441 1.73633 2.375 1.917 2.375H3.188C3.34067 2.375 3.47933 2.41333 3.604 2.49C3.72933 2.566 3.82667 2.68033 3.896 2.833L4.479 4.021H16.104C16.4793 4.021 16.7467 4.17033 16.906 4.469C17.066 4.76767 17.0627 5.06267 16.896 5.354L14.188 10.229C14.0487 10.479 13.861 10.6733 13.625 10.812C13.389 10.9513 13.132 11.021 12.854 11.021H6.812L5.917 12.688C5.875 12.7573 5.87133 12.8267 5.906 12.896C5.94067 12.9653 5.99967 13 6.083 13H14.917C15.0837 13 15.233 13.0693 15.365 13.208C15.4963 13.3473 15.562 13.5003 15.562 13.667C15.562 13.8477 15.4963 14.0037 15.365 14.135C15.233 14.267 15.0767 14.333 14.896 14.333H5.979Z" fill="#00AAB5"/>
</g>
</svg>
