<svg width="22" height="20" viewBox="0 0 22 20" fill="none" xmlns="http://www.w3.org/2000/svg">
<path d="M0.521114 9.50102C0.55398 9.36088 0.582466 9.21908 0.620263 9.08003C0.783132 8.4754 1.13492 7.9402 1.62317 7.55427C2.11141 7.16835 2.70995 6.95237 3.3295 6.93857C3.404 6.93857 3.47795 6.93857 3.56504 6.93857C3.8066 4.62372 4.8249 2.76363 6.68292 1.40265C7.97674 0.454879 9.43818 -0.00819904 11.0377 0.000109833C12.9724 0.0100809 14.6616 0.678116 16.0814 2.00255C17.5012 3.32698 18.277 4.98432 18.4632 6.91087C18.7458 6.94577 19.0109 6.96017 19.2722 7.01445C20.5403 7.28145 21.4961 8.44358 21.5093 9.75361C21.5175 10.5191 21.5438 11.2913 21.4638 12.0501C21.3274 13.3558 20.165 14.4088 18.868 14.4797C18.5344 14.498 18.1986 14.4914 17.8639 14.4897C17.4224 14.4897 17.1715 14.2282 17.1709 13.7757C17.1709 11.7169 17.1709 9.65797 17.1709 7.59885C17.1709 6.12208 16.7492 4.78103 15.8093 3.65323C14.1298 1.63806 11.9716 0.878627 9.45516 1.54833C6.93872 2.21802 5.44717 3.95513 4.95034 6.54139C4.8883 6.90909 4.86042 7.28185 4.86708 7.65479C4.85941 9.67219 4.86379 11.6896 4.86324 13.7075C4.86324 14.2149 4.70713 14.4342 4.21633 14.4919C2.67437 14.6725 1.35316 14.1351 0.746246 12.716C0.642172 12.4728 0.59397 12.2053 0.52002 11.9488L0.521114 9.50102Z" fill="#17212D"/>
<path d="M11.024 19.9977C10.7501 19.9977 10.4763 20.0027 10.2024 19.9977C9.85841 19.9968 9.52858 19.8593 9.28408 19.6146C9.03957 19.3701 8.89999 19.038 8.89545 18.6902C8.89092 18.3424 9.0218 18.0067 9.25986 17.7557C9.49792 17.5046 9.82404 17.3584 10.1678 17.3483C10.7343 17.3306 11.3002 17.3306 11.8659 17.3483C12.2091 17.3581 12.5348 17.5036 12.7729 17.7537C13.011 18.004 13.1425 18.3386 13.139 18.6858C13.1355 19.033 12.9973 19.365 12.7541 19.6101C12.5111 19.8553 12.1824 19.9941 11.8391 19.9966C11.5717 20.0038 11.2979 19.9972 11.024 19.9977Z" fill="#17212D"/>
<path d="M8.17242 18.0845V19.0163C5.72774 19.3143 3.59638 17.462 3.30607 15.2723H4.23238C4.83985 17.3755 6.02079 18.1483 8.17242 18.0845Z" fill="#17212D"/>
</svg>
