<svg width="49" height="48" viewBox="0 0 49 48" fill="none" xmlns="http://www.w3.org/2000/svg">
<mask id="mask0_1861_33567" style="mask-type:alpha" maskUnits="userSpaceOnUse" x="0" y="0" width="49" height="48">
<rect x="0.333252" width="48" height="48" fill="#D9D9D9"/>
</mask>
<g mask="url(#mask0_1861_33567)">
<path d="M10.0833 36.85V39.65C10.0833 40.0167 9.95825 40.3333 9.70825 40.6C9.45825 40.8667 9.13325 41 8.73325 41C8.33325 41 7.99992 40.8667 7.73325 40.6C7.46659 40.3333 7.33325 40 7.33325 39.6V24.4L11.4333 12.15C11.5666 11.7833 11.7833 11.5 12.0833 11.3C12.3833 11.1 12.7333 11 13.1333 11H35.6333C35.9999 11 36.3249 11.1 36.6083 11.3C36.8916 11.5 37.0999 11.7833 37.2333 12.15L41.3333 24.4V39.65C41.3333 40.0167 41.2083 40.3333 40.9583 40.6C40.7083 40.8667 40.3666 41 39.9333 41C39.5332 41 39.2083 40.8667 38.9583 40.6C38.7083 40.3333 38.5833 40 38.5833 39.6V36.85H10.0833ZM10.4833 22.1H38.1833L35.1833 13.25H13.4833L10.4833 22.1ZM14.7333 31.9C15.4333 31.9 16.0083 31.6667 16.4583 31.2C16.9083 30.7333 17.1333 30.1667 17.1333 29.5C17.1333 28.8 16.8999 28.2167 16.4333 27.75C15.9666 27.2833 15.3999 27.05 14.7333 27.05C14.0666 27.05 13.4916 27.2833 13.0083 27.75C12.5249 28.2167 12.2833 28.8 12.2833 29.5C12.2833 30.2 12.5249 30.775 13.0083 31.225C13.4916 31.675 14.0666 31.9 14.7333 31.9ZM33.9833 31.9C34.6499 31.9 35.2249 31.6667 35.7083 31.2C36.1916 30.7333 36.4333 30.1667 36.4333 29.5C36.4333 28.8 36.1916 28.2167 35.7083 27.75C35.2249 27.2833 34.6499 27.05 33.9833 27.05C33.2833 27.05 32.6999 27.2833 32.2333 27.75C31.7666 28.2167 31.5333 28.8 31.5333 29.5C31.5333 30.2 31.7749 30.775 32.2583 31.225C32.7416 31.675 33.3166 31.9 33.9833 31.9ZM9.58325 34.6H39.0833V24.4H9.58325V34.6Z" fill="#00346D"/>
</g>
</svg>
