<svg width="21" height="21" viewBox="0 0 21 21" fill="none" xmlns="http://www.w3.org/2000/svg">
<mask id="mask0_1993_29929" style="mask-type:alpha" maskUnits="userSpaceOnUse" x="0" y="0" width="21" height="21">
<rect x="0.5" y="0.5" width="20" height="20" fill="#D9D9D9"/>
</mask>
<g mask="url(#mask0_1993_29929)">
<path d="M10.5 11.6668L6.41665 15.7502C6.26387 15.9029 6.06942 15.9793 5.83331 15.9793C5.5972 15.9793 5.40276 15.9029 5.24998 15.7502C5.0972 15.5974 5.02081 15.4029 5.02081 15.1668C5.02081 14.9307 5.0972 14.7363 5.24998 14.5835L9.33331 10.5002L5.24998 6.41683C5.0972 6.26405 5.02081 6.06961 5.02081 5.8335C5.02081 5.59738 5.0972 5.40294 5.24998 5.25016C5.40276 5.09738 5.5972 5.021 5.83331 5.021C6.06942 5.021 6.26387 5.09738 6.41665 5.25016L10.5 9.3335L14.5833 5.25016C14.7361 5.09738 14.9305 5.021 15.1666 5.021C15.4028 5.021 15.5972 5.09738 15.75 5.25016C15.9028 5.40294 15.9791 5.59738 15.9791 5.8335C15.9791 6.06961 15.9028 6.26405 15.75 6.41683L11.6666 10.5002L15.75 14.5835C15.9028 14.7363 15.9791 14.9307 15.9791 15.1668C15.9791 15.4029 15.9028 15.5974 15.75 15.7502C15.5972 15.9029 15.4028 15.9793 15.1666 15.9793C14.9305 15.9793 14.7361 15.9029 14.5833 15.7502L10.5 11.6668Z" fill="#F4777C"/>
</g>
</svg>
