<svg width="14" height="14" viewBox="0 0 14 14" fill="none" xmlns="http://www.w3.org/2000/svg">
<path d="M7.01348 8.39999L2.11348 13.3C1.93014 13.4833 1.69681 13.575 1.41348 13.575C1.13014 13.575 0.89681 13.4833 0.713476 13.3C0.530143 13.1167 0.438477 12.8833 0.438477 12.6C0.438477 12.3167 0.530143 12.0833 0.713476 11.9L5.61348 6.99999L0.713476 2.09999C0.530143 1.91665 0.438477 1.68332 0.438477 1.39999C0.438477 1.11665 0.530143 0.883321 0.713476 0.699987C0.89681 0.516654 1.13014 0.424988 1.41348 0.424988C1.69681 0.424988 1.93014 0.516654 2.11348 0.699987L7.01348 5.59999L11.9135 0.699987C12.0968 0.516654 12.3301 0.424988 12.6135 0.424988C12.8968 0.424988 13.1301 0.516654 13.3135 0.699987C13.4968 0.883321 13.5885 1.11665 13.5885 1.39999C13.5885 1.68332 13.4968 1.91665 13.3135 2.09999L8.41348 6.99999L13.3135 11.9C13.4968 12.0833 13.5885 12.3167 13.5885 12.6C13.5885 12.8833 13.4968 13.1167 13.3135 13.3C13.1301 13.4833 12.8968 13.575 12.6135 13.575C12.3301 13.575 12.0968 13.4833 11.9135 13.3L7.01348 8.39999Z" fill="white"/>
</svg>
