<svg width="33" height="24" viewBox="0 0 33 24" fill="none" xmlns="http://www.w3.org/2000/svg">
<path d="M25.651 1C25.651 7.09645 21.6751 11.8676 16.3738 11.8676C11.3376 11.8676 7.09662 7.09645 7.09662 1H22.2052" stroke="#00346D" stroke-width="1.4" stroke-miterlimit="10" stroke-linecap="round"/>
<path d="M6.30126 8.1567C5.77113 8.42176 5.24101 8.42176 4.71089 8.42176C2.59038 8.42176 1 6.83138 1 4.71088C1 2.59038 2.59038 1 4.71089 1H6.83139" stroke="#00346D" stroke-width="1.4" stroke-miterlimit="10" stroke-linecap="round"/>
<path d="M25.9156 1H28.0361C30.1566 1 31.747 2.59038 31.747 4.71088C31.747 6.83138 30.1566 8.42176 28.0361 8.42176C26.4457 8.42176 25.1204 7.36151 24.5903 6.0362" stroke="#00346D" stroke-width="1.4" stroke-miterlimit="10" stroke-linecap="round"/>
<path d="M14.253 12.3975C14.253 12.3975 14.253 14.518 14.253 15.3132C13.9879 17.4337 13.4578 20.6144 11.3373 23H16.1084H16.9036H21.6747C19.5542 20.6144 18.759 17.4337 18.759 15.3132V14.518" stroke="#00346D" stroke-width="1.4" stroke-miterlimit="10" stroke-linecap="round"/>
</svg>
