<svg width="110" height="93" viewBox="0 0 110 93" fill="none" xmlns="http://www.w3.org/2000/svg">
<g clip-path="url(#clip0_1982_30947)">
<path d="M53.3708 6.80473C56.7987 6.18199 60.1952 5.54782 63.6146 4.93936C70.719 3.67388 77.8206 2.39697 84.9335 1.18005C87.4188 0.757274 89.8726 0.0716859 92.4064 0.00312707C96.8656 -0.111138 100.385 2.91688 101.153 7.31035C102.893 17.2885 104.687 27.2581 106.444 37.2334C107.418 42.7638 108.361 48.3028 109.323 53.8332C109.364 53.9592 109.425 54.0778 109.503 54.1846V57.3954C109.218 57.4668 109.295 57.7296 109.235 57.9153C108.115 61.3004 105.87 63.4314 102.322 64.0856C98.8738 64.7198 95.423 65.3282 91.9722 65.9481C91.9494 63.4457 91.9275 60.9414 91.9065 58.4352V43.7094C91.9065 43.2094 91.9494 42.7124 91.9379 42.2125C91.8951 40.2129 92.2093 38.1904 91.8208 36.2364C90.9381 31.8173 87.5102 29.1406 82.9796 29.1406C77.552 29.1406 72.1245 29.1406 66.7169 29.1406C63.5746 29.1406 60.4323 29.1092 57.2901 29.092C57.2845 28.7711 57.2616 28.4507 57.2215 28.1322C56.3702 23.2855 55.5132 18.4378 54.6505 13.5892C54.2449 11.321 53.7993 9.06431 53.3708 6.80473Z" fill="#6685A7"/>
<path d="M46.2259 92.9314C39.2367 92.9314 32.2466 92.9409 25.2555 92.96C20.045 92.96 14.8345 92.8428 9.62979 92.9943C4.70499 93.1371 1.31704 90.1091 0.400065 86.424C0.343361 86.3029 0.267119 86.1919 0.174393 86.0955L0.174393 58.2521C0.460054 58.2692 0.745716 58.3006 1.03138 58.3006H46.2059C46.2059 58.3578 46.2059 58.4178 46.2202 58.4749C46.2221 69.9585 46.224 81.444 46.2259 92.9314ZM18.3796 85.2414C20.7677 85.2414 23.1559 85.2414 25.5469 85.2414C27.4722 85.2271 28.8548 83.8959 28.8748 82.0791C28.8948 80.2623 27.4779 78.8426 25.5183 78.8226C20.7763 78.8092 16.0343 78.8092 11.2923 78.8226C9.34127 78.8226 7.8644 80.2509 7.88726 82.0591C7.90154 83.9074 9.31556 85.23 11.3152 85.2385C13.6748 85.25 16.0258 85.2414 18.3796 85.2414Z" fill="#CCD6E2"/>
<path d="M46.2059 58.2978H1.03138C0.745716 58.2978 0.460054 58.2664 0.174393 58.2493V43.6805C0.637165 43.6948 1.09708 43.7234 1.55985 43.7234H44.8376C45.3004 43.7234 45.7603 43.7634 46.223 43.7862L46.2059 58.2978Z" fill="#EBF5FC"/>
<path d="M46.223 43.7976C45.7603 43.7748 45.3004 43.7348 44.8376 43.7348H1.55985C1.09708 43.7348 0.637165 43.7062 0.174393 43.6919V35.9933C0.785709 35.1992 0.87712 34.168 1.42273 33.3281C3.22526 30.5543 5.8105 29.286 9.0499 29.186L10.1154 29.1375C11.2581 29.1375 12.4007 29.1689 13.5434 29.1689L46.1973 29.1974L46.223 43.6833C46.233 43.7208 46.233 43.7602 46.223 43.7976Z" fill="#CCD6E2"/>
<path d="M46.1945 29.1889L13.5405 29.1603C12.3979 29.1603 11.2552 29.1403 10.1126 29.1289C9.78977 27.235 9.42983 25.3467 9.14703 23.4442C8.38145 18.2823 11.4095 14.1945 16.5714 13.2947C28.6301 11.1922 40.685 9.07068 52.7361 6.93012C53.0532 6.87299 53.3732 6.84442 53.6902 6.80157C54.1187 9.06116 54.5644 11.3179 54.97 13.5803C55.8384 18.4251 56.6954 23.2728 57.541 28.1234C57.5811 28.4418 57.6039 28.7622 57.6095 29.0832C57.1468 29.0832 56.6868 29.1232 56.2241 29.126L46.1945 29.1889Z" fill="#A5B8CC"/>
<path d="M46.2259 92.9315C46.2259 81.446 46.2259 69.9595 46.2259 58.4721C46.6887 58.4721 47.1514 58.4435 47.6171 58.4435H92.2346C92.2574 60.9497 92.2793 63.454 92.3003 65.9564C92.2888 72.0506 92.2784 78.1447 92.2688 84.2388C92.2688 89.1636 88.6981 92.92 83.7847 92.9429C71.3727 93 58.9607 92.9658 46.5516 92.9658C46.4425 92.96 46.3338 92.9486 46.2259 92.9315Z" fill="#99AEC5"/>
<path d="M92.2289 58.435H47.6114C47.1457 58.435 46.683 58.455 46.2202 58.4635C46.2202 58.4064 46.2202 58.3464 46.2059 58.2893L46.2231 43.7891C46.2346 43.749 46.2346 43.7064 46.2231 43.6663C46.6858 43.6663 47.1486 43.6948 47.6114 43.6948H92.2317L92.2289 58.435Z" fill="#D3E7FC"/>
<path d="M92.2289 43.7062H47.6085C47.1457 43.7062 46.683 43.6891 46.2202 43.6777L46.1945 29.1918L56.2241 29.1289C56.6868 29.1289 57.1468 29.1003 57.6095 29.0861C60.7518 29.1032 63.8941 29.1289 67.0364 29.1346C72.4639 29.1346 77.8915 29.1346 83.2991 29.1346C87.8439 29.1346 91.2719 31.8141 92.1546 36.239C92.5431 38.193 92.2289 40.2212 92.2717 42.2151C92.2717 42.715 92.2403 43.212 92.2289 43.7062Z" fill="#99AEC5"/>
<path d="M18.3796 85.2414C16.0258 85.2414 13.6748 85.2414 11.3209 85.2414C9.3213 85.2414 7.89299 83.9103 7.89299 82.062C7.89299 80.2595 9.34701 78.834 11.2981 78.8255C16.0401 78.8083 20.782 78.8083 25.524 78.8255C27.4837 78.8255 28.9005 80.2309 28.8805 82.0792C28.8606 83.9274 27.4779 85.2214 25.5526 85.2414C23.1559 85.2529 20.7678 85.2414 18.3796 85.2414Z" fill="#E8F5FE"/>
</g>
<defs>
<clipPath id="clip0_1982_30947">
<rect width="109.651" height="93" fill="white" transform="translate(0.174393)"/>
</clipPath>
</defs>
</svg>
