<svg width="14" height="18" viewBox="0 0 14 18" fill="none" xmlns="http://www.w3.org/2000/svg">
<path d="M4.6053 14.1447H9.97372C10.1676 14.1447 10.328 14.0815 10.4551 13.9551C10.5815 13.828 10.6448 13.6675 10.6448 13.4737C10.6448 13.2798 10.5815 13.1194 10.4551 12.9923C10.328 12.8659 10.1676 12.8026 9.97372 12.8026H4.6053C4.41144 12.8026 4.25128 12.8659 4.12482 12.9923C3.99777 13.1194 3.93424 13.2798 3.93424 13.4737C3.93424 13.6675 3.99777 13.828 4.12482 13.9551C4.25128 14.0815 4.41144 14.1447 4.6053 14.1447ZM4.6053 10.5658H9.97372C10.1676 10.5658 10.328 10.5023 10.4551 10.3752C10.5815 10.2488 10.6448 10.0886 10.6448 9.89474C10.6448 9.70088 10.5815 9.54042 10.4551 9.41337C10.328 9.28691 10.1676 9.22368 9.97372 9.22368H4.6053C4.41144 9.22368 4.25128 9.28691 4.12482 9.41337C3.99777 9.54042 3.93424 9.70088 3.93424 9.89474C3.93424 10.0886 3.99777 10.2488 4.12482 10.3752C4.25128 10.5023 4.41144 10.5658 4.6053 10.5658ZM2.18951 17.5C1.74214 17.5 1.36187 17.3434 1.04872 17.0303C0.735559 16.7171 0.578979 16.3368 0.578979 15.8895V2.11053C0.578979 1.66316 0.735559 1.28289 1.04872 0.969737C1.36187 0.656579 1.74214 0.5 2.18951 0.5H8.63161C8.8553 0.5 9.06407 0.54086 9.25793 0.622579C9.45179 0.704895 9.62328 0.820614 9.7724 0.969737L13.5303 4.72763C13.6794 4.87675 13.7951 5.04825 13.8775 5.24211C13.9592 5.43597 14 5.64474 14 5.86842V15.8895C14 16.3368 13.8435 16.7171 13.5303 17.0303C13.2171 17.3434 12.8369 17.5 12.3895 17.5H2.18951ZM8.63161 5.06316V1.84211H2.18951C2.12986 1.84211 2.07021 1.87193 2.01056 1.93158C1.95091 1.99123 1.92108 2.05088 1.92108 2.11053V15.8895C1.92108 15.9491 1.95091 16.0088 2.01056 16.0684C2.07021 16.1281 2.12986 16.1579 2.18951 16.1579H12.3895C12.4492 16.1579 12.5088 16.1281 12.5685 16.0684C12.6281 16.0088 12.6579 15.9491 12.6579 15.8895V5.86842H9.43687C9.21319 5.86842 9.02291 5.78998 8.86603 5.63311C8.70975 5.47682 8.63161 5.28684 8.63161 5.06316Z" fill="#00AAB5"/>
</svg>
