<svg width="24" height="25" viewBox="0 0 24 25" fill="none" xmlns="http://www.w3.org/2000/svg">
<mask id="mask0_1873_38717" style="mask-type:alpha" maskUnits="userSpaceOnUse" x="0" y="0" width="24" height="25">
<rect y="0.5" width="24" height="24" fill="#D9D9D9"/>
</mask>
<g mask="url(#mask0_1873_38717)">
<path d="M3.875 21.075C3.45833 21.075 3.104 20.9289 2.812 20.6369C2.52067 20.3456 2.375 19.9916 2.375 19.575V5.07495C2.375 4.67495 2.52067 4.32495 2.812 4.02495C3.104 3.72495 3.45833 3.57495 3.875 3.57495H10.375C10.775 3.57495 11.125 3.72495 11.425 4.02495C11.725 4.32495 11.875 4.67495 11.875 5.07495V7.57495H20.125C20.5417 7.57495 20.896 7.72495 21.188 8.02495C21.4793 8.32495 21.625 8.67495 21.625 9.07495V19.575C21.625 19.9916 21.4793 20.3456 21.188 20.6369C20.896 20.9289 20.5417 21.075 20.125 21.075H3.875ZM3.875 19.575H6.375V17.075H3.875V19.575ZM3.875 15.575H6.375V13.075H3.875V15.575ZM3.875 11.575H6.375V9.07495H3.875V11.575ZM3.875 7.57495H6.375V5.07495H3.875V7.57495ZM7.875 19.575H10.375V17.075H7.875V19.575ZM7.875 15.575H10.375V13.075H7.875V15.575ZM7.875 11.575H10.375V9.07495H7.875V11.575ZM7.875 7.57495H10.375V5.07495H7.875V7.57495ZM11.875 19.575H20.125V9.07495H11.875V11.575H14.05V13.075H11.875V15.575H14.05V17.075H11.875V19.575ZM16.25 13.075V11.575H17.75V13.075H16.25ZM16.25 17.075V15.575H17.75V17.075H16.25Z" fill="#335D8A"/>
</g>
</svg>
