<svg width="27" height="29" viewBox="0 0 27 29" fill="none" xmlns="http://www.w3.org/2000/svg">
<g filter="url(#filter0_d_2026_31512)">
<mask id="mask0_2026_31512" style="mask-type:alpha" maskUnits="userSpaceOnUse" x="1" y="0" width="25" height="24">
<rect x="1.01001" width="24" height="24" fill="#D9D9D9"/>
</mask>
<g mask="url(#mask0_2026_31512)">
<path d="M13.01 21V18.875L18.31 13.575L20.435 15.7L15.135 21H13.01ZM4.01001 16V14H11.01V16H4.01001ZM21.135 15L19.01 12.875L19.735 12.15C19.9183 11.9667 20.1517 11.875 20.435 11.875C20.7183 11.875 20.9517 11.9667 21.135 12.15L21.86 12.875C22.0433 13.0583 22.135 13.2917 22.135 13.575C22.135 13.8583 22.0433 14.0917 21.86 14.275L21.135 15ZM4.01001 12V10H15.01V12H4.01001ZM4.01001 8V6H15.01V8H4.01001Z" fill="#00AAB5"/>
</g>
</g>
<defs>
<filter id="filter0_d_2026_31512" x="0.0100098" y="6" width="26.125" height="23" filterUnits="userSpaceOnUse" color-interpolation-filters="sRGB">
<feFlood flood-opacity="0" result="BackgroundImageFix"/>
<feColorMatrix in="SourceAlpha" type="matrix" values="0 0 0 0 0 0 0 0 0 0 0 0 0 0 0 0 0 0 127 0" result="hardAlpha"/>
<feOffset dy="4"/>
<feGaussianBlur stdDeviation="2"/>
<feComposite in2="hardAlpha" operator="out"/>
<feColorMatrix type="matrix" values="0 0 0 0 0 0 0 0 0 0 0 0 0 0 0 0 0 0 0.25 0"/>
<feBlend mode="normal" in2="BackgroundImageFix" result="effect1_dropShadow_2026_31512"/>
<feBlend mode="normal" in="SourceGraphic" in2="effect1_dropShadow_2026_31512" result="shape"/>
</filter>
</defs>
</svg>
