<svg width="22" height="16" viewBox="0 0 22 16" fill="none" xmlns="http://www.w3.org/2000/svg">
<path d="M5.19995 15.525C4.41662 15.525 3.75395 15.2543 3.21195 14.713C2.67062 14.171 2.39995 13.5083 2.39995 12.725C1.93328 12.6916 1.53328 12.5 1.19995 12.15C0.866618 11.8 0.699951 11.3916 0.699951 10.925V2.27498C0.699951 1.77498 0.874951 1.34998 1.22495 0.999976C1.57495 0.649976 1.99995 0.474976 2.49995 0.474976H14.3C14.8 0.474976 15.2293 0.649976 15.588 0.999976C15.946 1.34998 16.125 1.77498 16.125 2.27498V4.27498H18.325C18.475 4.27498 18.6083 4.30831 18.725 4.37498C18.8416 4.44164 18.95 4.53331 19.05 4.64998L21.825 8.37498C21.8916 8.44164 21.9376 8.52064 21.963 8.61198C21.9876 8.70398 22 8.79998 22 8.89998V11.825C22 12.075 21.9126 12.2876 21.738 12.463C21.5626 12.6376 21.35 12.725 21.1 12.725H20.2C20.2 13.5083 19.9249 14.171 19.375 14.713C18.825 15.2543 18.1583 15.525 17.375 15.525C16.6083 15.525 15.95 15.2543 15.4 14.713C14.8499 14.171 14.575 13.5083 14.575 12.725H7.99995C7.99995 13.5083 7.72928 14.171 7.18795 14.713C6.64595 15.2543 5.98328 15.525 5.19995 15.525ZM5.19995 14.025C5.56662 14.025 5.87495 13.9 6.12495 13.65C6.37495 13.4 6.49995 13.0916 6.49995 12.725C6.49995 12.3583 6.37495 12.05 6.12495 11.8C5.87495 11.55 5.56662 11.425 5.19995 11.425C4.83328 11.425 4.52495 11.55 4.27495 11.8C4.02495 12.05 3.89995 12.3583 3.89995 12.725C3.89995 13.0916 4.02495 13.4 4.27495 13.65C4.52495 13.9 4.83328 14.025 5.19995 14.025ZM2.19995 2.27498V10.925C2.19995 10.9583 2.20395 10.9916 2.21195 11.025C2.22062 11.0583 2.23762 11.0873 2.26295 11.112L2.33795 11.187C2.36262 11.2123 2.39162 11.225 2.42495 11.225H2.92495C3.14162 10.8583 3.44995 10.55 3.84995 10.3C4.24995 10.05 4.69995 9.92498 5.19995 9.92498C5.68328 9.92498 6.12928 10.0456 6.53795 10.287C6.94595 10.529 7.25828 10.8416 7.47495 11.225H14.625V2.27498C14.625 2.19164 14.596 2.12098 14.538 2.06298C14.4793 2.00431 14.4 1.97498 14.3 1.97498H2.49995C2.41662 1.97498 2.34595 2.00431 2.28795 2.06298C2.22928 2.12098 2.19995 2.19164 2.19995 2.27498ZM17.4 14.025C17.7666 14.025 18.075 13.9 18.325 13.65C18.575 13.4 18.7 13.0916 18.7 12.725C18.7 12.3583 18.575 12.05 18.325 11.8C18.075 11.55 17.7666 11.425 17.4 11.425C17.0333 11.425 16.721 11.55 16.463 11.8C16.2043 12.05 16.075 12.3583 16.075 12.725C16.075 13.0916 16.2043 13.4 16.463 13.65C16.721 13.9 17.0333 14.025 17.4 14.025ZM16.125 9.22498H20.6L18 5.77498H16.125V9.22498Z" fill="#00AAB5"/>
</svg>
