<svg width="25" height="27" viewBox="0 0 25 27" fill="none" xmlns="http://www.w3.org/2000/svg">
<g filter="url(#filter0_d_3038_38473)">
<mask id="mask0_3038_38473" style="mask-type:alpha" maskUnits="userSpaceOnUse" x="2" y="0" width="21" height="21">
<rect width="20" height="20" transform="matrix(-1 0 0 1 22.5 0.5)" fill="#D9D9D9"/>
</mask>
<g mask="url(#mask0_3038_38473)">
<path d="M8.58128 13.3658C8.69395 13.245 8.75029 13.117 8.75029 12.982C8.75029 12.8469 8.69395 12.723 8.58128 12.6103L6.50029 10.5294H15.1358C15.2865 10.5294 15.4124 10.4788 15.5135 10.3776C15.6146 10.2765 15.6652 10.1506 15.6652 9.99994C15.6652 9.84925 15.6146 9.72335 15.5135 9.62223C15.4124 9.5211 15.2865 9.47053 15.1358 9.47053H6.50029L8.60163 7.36916C8.7048 7.26599 8.75638 7.14688 8.75638 7.01181C8.75638 6.87674 8.69801 6.75083 8.58128 6.6341C8.4686 6.51735 8.34473 6.45897 8.20966 6.45897C8.0746 6.45897 7.95074 6.51531 7.83806 6.62798L5.06474 9.40128C4.97245 9.49359 4.90763 9.58794 4.87029 9.68433C4.83296 9.7807 4.8143 9.8859 4.8143 9.99994C4.8143 10.114 4.83296 10.2192 4.87029 10.3155C4.90763 10.4119 4.97245 10.5063 5.06474 10.5986L7.85842 13.3923C7.96566 13.4995 8.08478 13.5501 8.21577 13.544C8.34677 13.5378 8.4686 13.4785 8.58128 13.3658ZM19.2897 18.9999C19.777 18.9999 20.1839 18.8367 20.5104 18.5102C20.8368 18.1838 21.0001 17.7769 21.0001 17.2895V2.71034C21.0001 2.22301 20.8368 1.81612 20.5104 1.48964C20.1839 1.16317 19.777 0.999939 19.2897 0.999939H13.0181C12.8675 0.999939 12.7416 1.05051 12.6404 1.15164C12.5393 1.25276 12.4887 1.37866 12.4887 1.52935C12.4887 1.68002 12.5393 1.80592 12.6404 1.90706C12.7416 2.0082 12.8675 2.05876 13.0181 2.05876H19.2897C19.4525 2.05876 19.6019 2.12663 19.7376 2.26237C19.8734 2.39813 19.9412 2.54745 19.9412 2.71034V17.2895C19.9412 17.4524 19.8734 17.6017 19.7376 17.7375C19.6019 17.8732 19.4525 17.9411 19.2897 17.9411H13.0181C12.8675 17.9411 12.7416 17.9917 12.6404 18.0928C12.5393 18.1939 12.4887 18.3198 12.4887 18.4705C12.4887 18.6212 12.5393 18.7471 12.6404 18.8482C12.7416 18.9494 12.8675 18.9999 13.0181 18.9999H19.2897Z" fill="#ED1C24"/>
</g>
</g>
<defs>
<filter id="filter0_d_3038_38473" x="0.814331" y="0.999939" width="24.1857" height="26" filterUnits="userSpaceOnUse" color-interpolation-filters="sRGB">
<feFlood flood-opacity="0" result="BackgroundImageFix"/>
<feColorMatrix in="SourceAlpha" type="matrix" values="0 0 0 0 0 0 0 0 0 0 0 0 0 0 0 0 0 0 127 0" result="hardAlpha"/>
<feOffset dy="4"/>
<feGaussianBlur stdDeviation="2"/>
<feComposite in2="hardAlpha" operator="out"/>
<feColorMatrix type="matrix" values="0 0 0 0 0 0 0 0 0 0 0 0 0 0 0 0 0 0 0.25 0"/>
<feBlend mode="normal" in2="BackgroundImageFix" result="effect1_dropShadow_3038_38473"/>
<feBlend mode="normal" in="SourceGraphic" in2="effect1_dropShadow_3038_38473" result="shape"/>
</filter>
</defs>
</svg>
