<svg width="32" height="36" viewBox="0 0 32 36" fill="none" xmlns="http://www.w3.org/2000/svg">
<path d="M2.74998 0H21.8671L31.9999 10.0935V33.75C31.9999 34.9931 30.992 36 29.75 36H2.74998C1.50794 36 0.5 34.9931 0.5 33.75V2.24998C0.5 1.0069 1.50806 0 2.74998 0Z" fill="#E2574C"/>
<path d="M31.9674 10.125H24.125C22.8829 10.125 21.875 9.11701 21.875 7.87498V0.0224609L31.9674 10.125Z" fill="#B53629"/>
<path d="M23.56 17.0586C23.9369 17.0586 24.1214 16.7301 24.1214 16.4117C24.1214 16.082 23.929 15.7637 23.56 15.7637H21.4135C20.9938 15.7637 20.7599 16.1113 20.7599 16.4949V21.77C20.7599 22.2403 21.0276 22.5013 21.3899 22.5013C21.7499 22.5013 22.0188 22.2403 22.0188 21.77V20.3222H23.317C23.7198 20.3222 23.9212 19.9925 23.9212 19.6652C23.9212 19.3446 23.7198 19.0261 23.317 19.0261H22.0188V17.0586H23.56ZM16.3049 15.7637H14.7343C14.3079 15.7637 14.0053 16.0562 14.0053 16.4904V21.7746C14.0053 22.3134 14.4406 22.4822 14.7523 22.4822H16.4004C18.3511 22.4822 19.6393 21.1986 19.6393 19.2174C19.6382 17.1227 18.4255 15.7637 16.3049 15.7637ZM16.3803 21.1795H15.4229V17.0665H16.2858C17.5919 17.0665 18.16 17.9429 18.16 19.1522C18.16 20.284 17.6019 21.1795 16.3803 21.1795ZM10.627 15.7637H9.07114C8.63125 15.7637 8.38599 16.0539 8.38599 16.4949V21.77C8.38599 22.2403 8.66722 22.5013 9.04518 22.5013C9.42315 22.5013 9.70438 22.2403 9.70438 21.77V20.2299H10.6797C11.8835 20.2299 12.8769 19.3771 12.8769 18.0057C12.877 16.6637 11.9185 15.7637 10.627 15.7637ZM10.6012 18.9925H9.7045V17.0023H10.6012C11.1547 17.0023 11.5068 17.4343 11.5068 17.9979C11.5056 18.5605 11.1547 18.9925 10.6012 18.9925Z" fill="white"/>
</svg>
