<svg width="25" height="25" viewBox="0 0 25 25" fill="none" xmlns="http://www.w3.org/2000/svg">
<mask id="mask0_1873_38712" style="mask-type:alpha" maskUnits="userSpaceOnUse" x="0" y="0" width="25" height="25">
<rect x="0.5" y="0.5" width="24" height="24" fill="#D9D9D9"/>
</mask>
<g mask="url(#mask0_1873_38712)">
<path d="M12.5 12.2C11.5333 12.2 10.7083 11.854 10.025 11.162C9.34167 10.4706 9 9.64995 9 8.69995C9 7.73328 9.34167 6.90828 10.025 6.22495C10.7083 5.54162 11.5333 5.19995 12.5 5.19995C13.4667 5.19995 14.2917 5.54162 14.975 6.22495C15.6583 6.90828 16 7.73328 16 8.69995C16 9.64995 15.6583 10.4706 14.975 11.162C14.2917 11.854 13.4667 12.2 12.5 12.2ZM18.475 19.8H6.525C6.09167 19.8 5.72933 19.6543 5.438 19.363C5.146 19.071 5 18.7166 5 18.3V17.575C5 17.0916 5.13333 16.6416 5.4 16.225C5.66667 15.8083 6.025 15.4833 6.475 15.25C7.45833 14.7666 8.45433 14.404 9.463 14.162C10.471 13.9206 11.4833 13.8 12.5 13.8C13.5167 13.8 14.5293 13.9206 15.538 14.162C16.546 14.404 17.5417 14.7666 18.525 15.25C18.975 15.4833 19.3333 15.8083 19.6 16.225C19.8667 16.6416 20 17.0916 20 17.575V18.3C20 18.7166 19.854 19.071 19.562 19.363C19.2707 19.6543 18.9083 19.8 18.475 19.8ZM6.5 18.3H18.5V17.575C18.5 17.375 18.4417 17.1916 18.325 17.025C18.2083 16.8583 18.05 16.7166 17.85 16.6C16.9833 16.1833 16.1043 15.8623 15.213 15.637C14.321 15.4123 13.4167 15.3 12.5 15.3C11.5833 15.3 10.679 15.4123 9.787 15.637C8.89567 15.8623 8.01667 16.1833 7.15 16.6C6.95 16.7166 6.79167 16.8583 6.675 17.025C6.55833 17.1916 6.5 17.375 6.5 17.575V18.3ZM12.5 10.7C13.05 10.7 13.521 10.504 13.913 10.112C14.3043 9.72062 14.5 9.24995 14.5 8.69995C14.5 8.14995 14.3043 7.67895 13.913 7.28695C13.521 6.89562 13.05 6.69995 12.5 6.69995C11.95 6.69995 11.4793 6.89562 11.088 7.28695C10.696 7.67895 10.5 8.14995 10.5 8.69995C10.5 9.24995 10.696 9.72062 11.088 10.112C11.4793 10.504 11.95 10.7 12.5 10.7Z" fill="#335D8A"/>
</g>
</svg>
