<svg width="65" height="64" viewBox="0 0 65 64" fill="none" xmlns="http://www.w3.org/2000/svg">
<path d="M8.2854 34.5714V46.0001C8.2854 51.1429 8.2854 62.0001 24.2855 62.0001C40.2855 62.0001 36.2855 62.0001 40.2855 62.0001C56.2856 62.0001 56.2856 52.2858 56.2856 46.0001V40.8572" stroke="#00346D" stroke-width="2.68182" stroke-miterlimit="10" stroke-linecap="round" stroke-linejoin="round"/>
<path d="M32.2865 26.5711V55.7141" stroke="#00346D" stroke-width="2.68182" stroke-miterlimit="10" stroke-linecap="round" stroke-linejoin="round"/>
<path d="M8.28574 34.5711H63.1431C63.1431 19.7139 54.5717 19.7139 54.5717 19.7139H10.5715C10.5715 19.7139 2 19.7139 2 34.5711" stroke="#00346D" stroke-width="2.68182" stroke-miterlimit="10" stroke-linecap="round" stroke-linejoin="round"/>
<path d="M25.9999 2C20.857 2 19.7142 5.42858 19.7142 8.28574C19.7142 14.5715 26.5713 14.5715 32.8571 14.5715V11.7143C32.2857 5.42859 29.4285 2 25.9999 2Z" stroke="#00346D" stroke-width="2.68182" stroke-miterlimit="10" stroke-linecap="round" stroke-linejoin="round"/>
<path d="M25.9999 2C20.857 2 19.7142 5.42858 19.7142 8.28574C19.7142 14.5715 26.5713 14.5715 32.8571 14.5715V11.7143C32.2857 5.42859 29.4285 2 25.9999 2Z" stroke="#00346D" stroke-width="2.68182" stroke-miterlimit="10" stroke-linecap="round" stroke-linejoin="round"/>
<path d="M35.1437 3.71429C36.2865 2.57143 37.4294 2 39.1437 2C44.2866 2 45.4294 5.42858 45.4294 8.28574C45.4294 14.5715 38.5722 14.5715 32.2865 14.5715" stroke="#00346D" stroke-width="2.68182" stroke-miterlimit="10" stroke-linecap="round" stroke-linejoin="round"/>
</svg>
