<svg width="32" height="32" viewBox="0 0 32 32" fill="none" xmlns="http://www.w3.org/2000/svg">
<mask id="mask0_1829_30149" style="mask-type:alpha" maskUnits="userSpaceOnUse" x="0" y="0" width="32" height="32">
<rect width="32" height="32" fill="#D9D9D9"/>
</mask>
<g mask="url(#mask0_1829_30149)">
<path d="M24.6336 27.9667C24.478 27.9667 24.3393 27.9445 24.2176 27.9C24.0949 27.8556 23.978 27.7778 23.8669 27.6667L16.8669 20.6667V19.9L19.8002 16.9334H20.5669L27.6002 23.9667C27.7113 24.0778 27.7838 24.1947 27.8176 24.3174C27.8505 24.4392 27.8669 24.5778 27.8669 24.7334C27.8669 24.8667 27.8447 24.9943 27.8002 25.116C27.7558 25.2387 27.678 25.3667 27.5669 25.5L25.3669 27.6667C25.2558 27.7778 25.1393 27.8556 25.0176 27.9C24.8949 27.9445 24.7669 27.9667 24.6336 27.9667ZM24.6336 26.5667L26.5002 24.7L20.0336 18.2334L18.1669 20.1L24.6336 26.5667ZM7.33356 27.9667C7.20023 27.9667 7.07267 27.9445 6.95089 27.9C6.82823 27.8556 6.71134 27.7778 6.60023 27.6667L4.36689 25.4667C4.25578 25.3556 4.17801 25.2387 4.13356 25.116C4.08912 24.9943 4.06689 24.8556 4.06689 24.7C4.06689 24.5667 4.08912 24.4334 4.13356 24.3C4.17801 24.1667 4.25578 24.0445 4.36689 23.9334L11.2336 17.0667H14.0336L15.0336 16.0334L9.40023 10.3667H7.50023L4.13356 7.00005L6.96689 4.16672L10.3336 7.53338V9.43338L16.0002 15.1L20.0002 11.0667L17.5669 8.60005L19.0669 7.10005H16.0336L15.5002 6.56672L19.2669 2.80005L19.8002 3.33338V6.36672L21.3002 4.86672L26.6002 10.1C26.9336 10.4112 27.178 10.7667 27.3336 11.1667C27.4891 11.5667 27.5669 11.9889 27.5669 12.4334C27.5669 12.7667 27.5167 13.0889 27.4162 13.4C27.3167 13.7112 27.178 14 27.0002 14.2667L24.2669 11.5334L22.3669 13.4334L20.9336 12L14.9336 18V20.8334L8.10023 27.6667C7.98912 27.7778 7.87223 27.8556 7.74956 27.9C7.62778 27.9445 7.48912 27.9667 7.33356 27.9667ZM7.33356 26.5334L13.9002 19.9667L12.0336 18.1L5.46689 24.6667L7.33356 26.5334Z" fill="#00346D"/>
</g>
</svg>
