<svg width="32" height="32" viewBox="0 0 32 32" fill="none" xmlns="http://www.w3.org/2000/svg">
<mask id="mask0_1861_33810" style="mask-type:alpha" maskUnits="userSpaceOnUse" x="0" y="0" width="32" height="32">
<rect width="32" height="32" fill="#D9D9D9"/>
</mask>
<g mask="url(#mask0_1861_33810)">
<path d="M24.4667 27.5666C24.3333 27.5666 24.2111 27.5444 24.1 27.4999C23.9889 27.4555 23.8778 27.3777 23.7667 27.2666L16.7667 20.2999V19.6999L19.6 16.8666H20.2L27.2 23.8666C27.3111 23.9777 27.3831 24.0946 27.416 24.2173C27.4498 24.3391 27.4667 24.4666 27.4667 24.5999C27.4667 24.7333 27.4444 24.8555 27.4 24.9666C27.3556 25.0777 27.2778 25.1888 27.1667 25.2999L25.1667 27.2666C25.0556 27.3777 24.9444 27.4555 24.8333 27.4999C24.7222 27.5444 24.6 27.5666 24.4667 27.5666ZM24.4667 26.6999L26.6 24.5666L19.9 17.8666L17.7667 19.9999L24.4667 26.6999ZM7.5 27.5666C7.36667 27.5666 7.24444 27.5444 7.13333 27.4999C7.02222 27.4555 6.91111 27.3777 6.8 27.2666L4.76667 25.2666C4.65556 25.1555 4.58356 25.0444 4.55067 24.9333C4.51689 24.8222 4.5 24.6999 4.5 24.5666C4.5 24.4333 4.51689 24.3053 4.55067 24.1826C4.58356 24.0608 4.65556 23.9444 4.76667 23.8333L11.5667 17.0333H14.3333L15.3333 16.0333L9.63333 10.3333H7.73333L4.56667 7.16661L7.13333 4.59994L10.3 7.76661V9.66661L16 15.3666L20.0667 11.2999L17.3 8.53328L18.7 7.13328H15.9L15.4667 6.73328L18.9667 3.23328L19.3667 3.63328V6.46661L20.7667 5.06661L26.2333 10.4666C26.5444 10.7555 26.7724 11.0888 26.9173 11.4666C27.0613 11.8444 27.1333 12.2444 27.1333 12.6666C27.1333 12.9333 27.1 13.1942 27.0333 13.4493C26.9667 13.7053 26.8667 13.9555 26.7333 14.1999L24.0333 11.4999L22.1333 13.3999L20.7 11.9666L14.9667 17.6999V20.5333L8.2 27.2666C8.08889 27.3777 7.97778 27.4555 7.86667 27.4999C7.75556 27.5444 7.63333 27.5666 7.5 27.5666ZM7.5 26.6666L14.3333 19.8333L12.2 17.6999L5.36667 24.5333L7.5 26.6666Z" fill="#6685A7"/>
</g>
</svg>
