<svg width="20" height="20" viewBox="0 0 20 20" fill="none" xmlns="http://www.w3.org/2000/svg">
<mask id="mask0_1949_32907" style="mask-type:alpha" maskUnits="userSpaceOnUse" x="0" y="0" width="20" height="20">
<rect width="20" height="20" fill="#D9D9D9"/>
</mask>
<g mask="url(#mask0_1949_32907)">
<path d="M8.49999 8.81199L9.56199 8.27099C9.70133 8.18766 9.84733 8.14599 9.99999 8.14599C10.1527 8.14599 10.2987 8.18766 10.438 8.27099L11.5 8.81199V4.49999H8.49999V8.81199ZM6.54199 13.792C6.38866 13.792 6.25999 13.7397 6.15599 13.635C6.05199 13.531 5.99999 13.4027 5.99999 13.25C5.99999 13.0973 6.05199 12.969 6.15599 12.865C6.25999 12.7603 6.38866 12.708 6.54199 12.708H9.45799C9.61133 12.708 9.73999 12.7603 9.84399 12.865C9.94799 12.969 9.99999 13.0973 9.99999 13.25C9.99999 13.4027 9.94799 13.531 9.84399 13.635C9.73999 13.7397 9.61133 13.792 9.45799 13.792H6.54199ZM4.74999 16.583C4.37533 16.583 4.05933 16.4547 3.80199 16.198C3.54533 15.9407 3.41699 15.6247 3.41699 15.25V4.74999C3.41699 4.37533 3.54533 4.05933 3.80199 3.80199C4.05933 3.54533 4.37533 3.41699 4.74999 3.41699H15.25C15.6247 3.41699 15.9407 3.54533 16.198 3.80199C16.4547 4.05933 16.583 4.37533 16.583 4.74999V15.25C16.583 15.6247 16.4547 15.9407 16.198 16.198C15.9407 16.4547 15.6247 16.583 15.25 16.583H4.74999ZM4.74999 15.5H15.25C15.3053 15.5 15.361 15.4723 15.417 15.417C15.4723 15.361 15.5 15.3053 15.5 15.25V4.74999C15.5 4.69466 15.4723 4.63899 15.417 4.58299C15.361 4.52766 15.3053 4.49999 15.25 4.49999H12.583V9.68799C12.583 9.89599 12.4963 10.052 12.323 10.156C12.149 10.26 11.972 10.2637 11.792 10.167L9.99999 9.27099L8.20799 10.167C8.02799 10.2637 7.85099 10.26 7.67699 10.156C7.50366 10.052 7.41699 9.89599 7.41699 9.68799V4.49999H4.74999C4.69466 4.49999 4.63899 4.52766 4.58299 4.58299C4.52766 4.63899 4.49999 4.69466 4.49999 4.74999V15.25C4.49999 15.3053 4.52766 15.361 4.58299 15.417C4.63899 15.4723 4.69466 15.5 4.74999 15.5Z" fill="#00AAB5"/>
</g>
</svg>
