<svg width="32" height="32" viewBox="0 0 32 32" fill="none" xmlns="http://www.w3.org/2000/svg">
<mask id="mask0_1864_35391" style="mask-type:alpha" maskUnits="userSpaceOnUse" x="0" y="0" width="32" height="32">
<rect y="3.05176e-05" width="32" height="32" fill="#D9D9D9"/>
</mask>
<g mask="url(#mask0_1864_35391)">
<path d="M24 25.7334L23.0667 24.8L25.8334 22H19.3334V20.6667H25.8334L23.0667 17.8667L24 16.9334L28.4 21.3334L24 25.7334ZM5.50004 22C4.90004 22 4.38893 21.7889 3.96671 21.3667C3.54449 20.9445 3.33337 20.4334 3.33337 19.8334V6.83337C3.33337 6.23337 3.54449 5.72226 3.96671 5.30004C4.38893 4.87781 4.90004 4.6667 5.50004 4.6667H22.5C23.1 4.6667 23.6112 4.87781 24.0334 5.30004C24.4556 5.72226 24.6667 6.23337 24.6667 6.83337V14.0334C24.5556 14.0111 24.4445 14 24.3334 14H23.6667C23.5556 14 23.4445 14.0111 23.3334 14.0334V7.00004L13.8667 13.8334L4.66671 7.00004V19.8334C4.66671 20.0778 4.74449 20.2778 4.90004 20.4334C5.0556 20.5889 5.2556 20.6667 5.50004 20.6667H16.7C16.6778 20.7778 16.6667 20.8889 16.6667 21V21.6667C16.6667 21.7778 16.6778 21.8889 16.7 22H5.50004ZM5.53337 6.00004L13.8667 12.2334L22.4667 6.00004H5.53337Z" fill="#00346D"/>
</g>
</svg>
