<svg width="17" height="18" viewBox="0 0 17 18" fill="none" xmlns="http://www.w3.org/2000/svg">
<path d="M13.6154 18C12.9077 18 12.3077 17.7538 11.8154 17.2615C11.3231 16.7692 11.0769 16.1692 11.0769 15.4615C11.0769 15.3538 11.0846 15.2345 11.1 15.1034C11.1154 14.9729 11.1462 14.8615 11.1923 14.7692L4.36154 10.7538C4.11538 11 3.83846 11.1923 3.53077 11.3308C3.22308 11.4692 2.89231 11.5385 2.53846 11.5385C1.83077 11.5385 1.23077 11.2923 0.738462 10.8C0.246154 10.3077 0 9.70769 0 9C0 8.29231 0.246154 7.69231 0.738462 7.2C1.23077 6.70769 1.83077 6.46154 2.53846 6.46154C2.89231 6.46154 3.22308 6.53077 3.53077 6.66923C3.83846 6.80769 4.11538 7 4.36154 7.24615L11.1923 3.23077C11.1462 3.13846 11.1154 3.02677 11.1 2.89569C11.0846 2.76523 11.0769 2.64615 11.0769 2.53846C11.0769 1.83077 11.3231 1.23077 11.8154 0.738461C12.3077 0.246154 12.9077 0 13.6154 0C14.3231 0 14.9231 0.246154 15.4154 0.738461C15.9077 1.23077 16.1538 1.83077 16.1538 2.53846C16.1538 3.24615 15.9077 3.84615 15.4154 4.33846C14.9231 4.83077 14.3231 5.07692 13.6154 5.07692C13.2615 5.07692 12.9308 5.00769 12.6231 4.86923C12.3154 4.73077 12.0385 4.53846 11.7923 4.29231L4.96154 8.30769C5.00769 8.4 5.03846 8.50769 5.05385 8.63077C5.06923 8.75385 5.07692 8.87692 5.07692 9C5.07692 9.10769 5.06923 9.22677 5.05385 9.35723C5.03846 9.48831 5.00769 9.6 4.96154 9.69231L11.7923 13.7077C12.0385 13.4615 12.3154 13.2692 12.6231 13.1308C12.9308 12.9923 13.2615 12.9231 13.6154 12.9231C14.3231 12.9231 14.9231 13.1692 15.4154 13.6615C15.9077 14.1538 16.1538 14.7538 16.1538 15.4615C16.1538 16.1692 15.9077 16.7692 15.4154 17.2615C14.9231 17.7538 14.3231 18 13.6154 18ZM13.6154 3.69231C13.9385 3.69231 14.2117 3.58062 14.4351 3.35723C14.6578 3.13446 14.7692 2.86154 14.7692 2.53846C14.7692 2.21538 14.6578 1.94215 14.4351 1.71877C14.2117 1.496 13.9385 1.38462 13.6154 1.38462C13.2923 1.38462 13.0194 1.496 12.7966 1.71877C12.5732 1.94215 12.4615 2.21538 12.4615 2.53846C12.4615 2.86154 12.5732 3.13446 12.7966 3.35723C13.0194 3.58062 13.2923 3.69231 13.6154 3.69231ZM2.53846 10.1538C2.86154 10.1538 3.13477 10.0422 3.35815 9.81877C3.58092 9.596 3.69231 9.32308 3.69231 9C3.69231 8.67692 3.58092 8.404 3.35815 8.18123C3.13477 7.95785 2.86154 7.84615 2.53846 7.84615C2.21538 7.84615 1.94246 7.95785 1.71969 8.18123C1.49631 8.404 1.38462 8.67692 1.38462 9C1.38462 9.32308 1.49631 9.596 1.71969 9.81877C1.94246 10.0422 2.21538 10.1538 2.53846 10.1538ZM13.6154 16.6154C13.9385 16.6154 14.2117 16.5037 14.4351 16.2803C14.6578 16.0575 14.7692 15.7846 14.7692 15.4615C14.7692 15.1385 14.6578 14.8655 14.4351 14.6428C14.2117 14.4194 13.9385 14.3077 13.6154 14.3077C13.2923 14.3077 13.0194 14.4194 12.7966 14.6428C12.5732 14.8655 12.4615 15.1385 12.4615 15.4615C12.4615 15.7846 12.5732 16.0575 12.7966 16.2803C13.0194 16.5037 13.2923 16.6154 13.6154 16.6154Z" fill="#00AAB5"/>
</svg>
