<svg width="22" height="22" viewBox="0 0 22 22" fill="none" xmlns="http://www.w3.org/2000/svg">
<path d="M8.3334 8.99994L10.3334 7.99994C10.5556 7.88883 10.7778 7.83328 11.0001 7.83328C11.2223 7.83328 11.4445 7.88883 11.6667 7.99994L13.6667 8.99994V1.66661H8.3334V8.99994ZM4.80007 16.7999C4.66673 16.7999 4.55562 16.7555 4.46673 16.6666C4.37784 16.5777 4.3334 16.4666 4.3334 16.3333C4.3334 16.1999 4.37784 16.0888 4.46673 15.9999C4.55562 15.9111 4.66673 15.8666 4.80007 15.8666H10.5334C10.6667 15.8666 10.7778 15.9111 10.8667 15.9999C10.9556 16.0888 11.0001 16.1999 11.0001 16.3333C11.0001 16.4666 10.9556 16.5777 10.8667 16.6666C10.7778 16.7555 10.6667 16.7999 10.5334 16.7999H4.80007ZM2.7334 21.2666C2.15562 21.2666 1.67784 21.0777 1.30006 20.6999C0.922287 20.3222 0.733398 19.8444 0.733398 19.2666V2.73328C0.733398 2.1555 0.922287 1.67772 1.30006 1.29994C1.67784 0.922165 2.15562 0.733276 2.7334 0.733276H19.2667C19.8445 0.733276 20.3223 0.922165 20.7001 1.29994C21.0778 1.67772 21.2667 2.1555 21.2667 2.73328V19.2666C21.2667 19.8444 21.0778 20.3222 20.7001 20.6999C20.3223 21.0777 19.8445 21.2666 19.2667 21.2666H2.7334ZM2.7334 20.3333H19.2667C19.5334 20.3333 19.7778 20.2222 20.0001 19.9999C20.2223 19.7777 20.3334 19.5333 20.3334 19.2666V2.73328C20.3334 2.46661 20.2223 2.22217 20.0001 1.99994C19.7778 1.77772 19.5334 1.66661 19.2667 1.66661H14.6001V9.73328C14.6001 9.91105 14.5223 10.0502 14.3667 10.1506C14.2112 10.2502 14.0445 10.2555 13.8667 10.1666L11.0001 8.73328L8.1334 10.1666C7.95562 10.2555 7.78895 10.2502 7.6334 10.1506C7.47784 10.0502 7.40007 9.91105 7.40007 9.73328V1.66661H2.7334C2.46673 1.66661 2.22229 1.77772 2.00006 1.99994C1.77784 2.22217 1.66673 2.46661 1.66673 2.73328V19.2666C1.66673 19.5333 1.77784 19.7777 2.00006 19.9999C2.22229 20.2222 2.46673 20.3333 2.7334 20.3333Z" fill="#6685A7"/>
</svg>
