<svg width="49" height="48" viewBox="0 0 49 48" fill="none" xmlns="http://www.w3.org/2000/svg">
<mask id="mask0_1861_33557" style="mask-type:alpha" maskUnits="userSpaceOnUse" x="0" y="0" width="49" height="48">
<rect x="0.666626" width="48" height="48" fill="#D9D9D9"/>
</mask>
<g mask="url(#mask0_1861_33557)">
<path d="M11.7666 39.1C10.2332 39.1 8.92491 38.5667 7.84158 37.5C6.75824 36.4333 6.21658 35.1167 6.21658 33.55H6.01658C5.28324 33.4833 4.65824 33.175 4.14158 32.625C3.62491 32.075 3.36658 31.4167 3.36658 30.65V11.9C3.36658 11.1 3.64991 10.4167 4.21658 9.85C4.78324 9.28333 5.46658 9 6.26658 9H31.2666C32.0666 9 32.7499 9.28333 33.3166 9.85C33.8832 10.4167 34.1666 11.1 34.1666 11.9V16.85H38.2166C38.4499 16.85 38.6666 16.9 38.8666 17C39.0666 17.1 39.2332 17.25 39.3666 17.45L45.7166 25.9C45.7832 26.0333 45.8416 26.1667 45.8916 26.3C45.9416 26.4333 45.9666 26.5833 45.9666 26.75V32.1C45.9666 32.5 45.8332 32.8417 45.5666 33.125C45.2999 33.4083 44.9499 33.55 44.5166 33.55H42.7166C42.7166 35.1167 42.1749 36.4333 41.0916 37.5C40.0082 38.5667 38.6832 39.1 37.1166 39.1C35.5832 39.1 34.2832 38.5667 33.2166 37.5C32.1499 36.4333 31.6166 35.1167 31.6166 33.55H17.3166C17.3166 35.1167 16.7749 36.4333 15.6916 37.5C14.6082 38.5667 13.2999 39.1 11.7666 39.1ZM11.7666 36.8C12.6999 36.8 13.4832 36.475 14.1166 35.825C14.7499 35.175 15.0666 34.4 15.0666 33.5C15.0666 32.6333 14.7499 31.875 14.1166 31.225C13.4832 30.575 12.6999 30.25 11.7666 30.25C10.8666 30.25 10.0999 30.575 9.46658 31.225C8.83324 31.875 8.51658 32.6333 8.51658 33.5C8.51658 34.4 8.83324 35.175 9.46658 35.825C10.0999 36.475 10.8666 36.8 11.7666 36.8ZM5.61658 11.9V30.65C5.61658 30.7167 5.63324 30.7833 5.66658 30.85L5.76658 31.05C5.79991 31.1167 5.84991 31.1667 5.91658 31.2C5.98324 31.2333 6.03324 31.25 6.06658 31.25H6.71658C7.14991 30.3167 7.81658 29.5333 8.71658 28.9C9.61658 28.2667 10.6332 27.95 11.7666 27.95C12.8332 27.95 13.8332 28.2667 14.7666 28.9C15.6999 29.5333 16.3832 30.3167 16.8166 31.25H31.9166V11.9C31.9166 11.7 31.8499 11.5417 31.7166 11.425C31.5832 11.3083 31.4332 11.25 31.2666 11.25H6.26658C6.06658 11.25 5.90824 11.3083 5.79158 11.425C5.67491 11.5417 5.61658 11.7 5.61658 11.9ZM37.1666 36.8C38.0666 36.8 38.8332 36.475 39.4666 35.825C40.0999 35.175 40.4166 34.4 40.4166 33.5C40.4166 32.6333 40.0999 31.875 39.4666 31.225C38.8332 30.575 38.0666 30.25 37.1666 30.25C36.2666 30.25 35.4916 30.575 34.8416 31.225C34.1916 31.875 33.8666 32.6333 33.8666 33.5C33.8666 34.4 34.1916 35.175 34.8416 35.825C35.4916 36.475 36.2666 36.8 37.1666 36.8ZM34.1666 27.05H43.7166L37.7666 19.15H34.1666V27.05Z" fill="#6685A7"/>
</g>
</svg>
